<?xml version="1.0" encoding="UTF-8"?>
<svg id="Capa_1" xmlns="http://www.w3.org/2000/svg" viewBox="0 0 1920 1080">
  <defs>
    <style>
      .cls-1 {
        fill: #fff;
      }

      .cls-2 {
        opacity: .56;
      }

      .cls-3 {
        opacity: .43;
      }
    </style>
  </defs>
  <g class="cls-3">
    <g id="Patron" class="cls-2">
      <polygon class="cls-1" points="152.32 1022.68 152.66 1024 235.56 1022.74 278.06 1093.24 238.39 1164.78 155.94 1165.66 114.26 1095.62 154.14 1023.69 152.05 1022.53 152.08 1024.43 152.05 1022.53 150.38 1021.59 108.82 1096.19 153.21 1170.42 239.69 1169.1 282.3 1092.61 237.91 1018.37 151.43 1019.7 150.89 1020.65 152.32 1022.68 152.32 1022.68"/>
      <polygon class="cls-1" points="-15.39 1024.47 -15.42 1022.55 -98.46 1023.82 -140.52 953.5 -100.64 881.91 -18.71 880.65 23.35 950.99 -17.07 1023.54 -14.82 1024.78 -14.86 1022.86 -14.82 1024.78 -13.15 1025.71 28.39 951.12 -15.98 876.89 -102.46 878.21 -144.56 953.76 -100.18 1027.99 -13.69 1026.67 -13.15 1025.71 -15.39 1024.47 -15.39 1024.47"/>
      <polygon class="cls-1" points="-13.45 1170.79 -13.15 1168.29 -96.04 1169.56 -137.76 1099.49 -98.09 1027.95 -16.42 1026.63 26.04 1097.11 -14.5 1170.21 -13.35 1170.84 -13.38 1168.94 -13.35 1170.84 -11.68 1171.79 29.87 1097.19 -14.51 1022.96 -100.99 1024.29 -142.55 1098.89 -98.17 1173.12 -11.68 1171.8 -11.14 1170.84 -13.45 1170.79 -13.45 1170.79"/>
      <polygon class="cls-1" points="70.6 1169.39 70.84 1167 -12.05 1168.27 -54.39 1097.86 -14.73 1026.33 67.58 1025.35 109.41 1095.48 69.46 1167.53 71.12 1168.45 70.84 1167 70.6 1169.39 72.71 1170.56 114.24 1095.65 69.72 1021.51 -16.47 1022.82 -58.43 1098.13 -14.2 1172.11 72.44 1171.04 72.71 1170.56 70.6 1169.39 70.6 1169.39"/>
      <polygon class="cls-1" points="322.65 1165.13 322.62 1163.23 239.59 1164.5 197.54 1094.17 237.42 1022.58 319.35 1021.32 361.41 1091.66 320.98 1164.21 323.22 1165.45 323.19 1163.54 323.22 1165.45 324.9 1166.38 366.44 1091.79 322.06 1017.56 235.58 1018.89 193.49 1094.44 237.88 1168.67 324.36 1167.35 324.91 1166.38 322.65 1165.13 322.65 1165.13"/>
      <polygon class="cls-1" points="22.84 805.63 22.65 803.99 -60.24 805.26 -101.95 735.2 -62.28 663.66 19.39 662.34 61.85 732.82 21.8 805.06 22.84 805.63 22.65 803.99 22.84 805.63 24.62 806.63 65.74 732.47 21.52 658.49 -64.97 659.64 -106.78 735.03 -62.39 809.11 23.94 807.86 24.1 807.57 22.84 805.63 22.84 805.63"/>
      <polygon class="cls-1" points="279.71 1091.02 196.81 1092.28 154.27 1021.13 151 1023.08 194.68 1096.13 279.77 1094.82 279.71 1091.02 279.71 1091.02"/>
      <polyline class="cls-1" points="68.67 1025.29 152.66 1024 152.62 1020.2 68.62 1021.48"/>
      <polyline class="cls-1" points="487.52 946.15 571.52 944.87 571.46 941.06 487.48 942.35"/>
      <polyline class="cls-1" points="111 950.53 151.72 877.1 148.9 875.53 108.18 948.97"/>
      <polyline class="cls-1" points="489.77 1017.77 530.49 944.33 527.67 942.77 486.95 1016.2"/>
      <polygon class="cls-1" points="240.49 1165.32 197.63 1093.99 237.58 1021.95 234.75 1020.38 193.74 1094.34 237.22 1167.28 240.49 1165.32 240.49 1165.32"/>
      <polygon class="cls-1" points="492.48 1161.47 449.64 1090.15 489.77 1017.77 486.95 1016.2 445.75 1090.5 489.2 1163.43 492.48 1161.47 492.48 1161.47"/>
      <polyline class="cls-1" points="109.5 948.14 25.51 949.42 25.56 953.23 109.56 951.95"/>
      <polyline class="cls-1" points="21.8 805.06 -18.92 878.49 -16.09 880.06 24.62 806.63"/>
      <polyline class="cls-1" points="197.38 1093.25 154.27 1021.14 151 1023.1 194.11 1095.2"/>
      <polyline class="cls-1" points="403.47 943.63 319.49 944.9 319.53 948.72 403.53 947.43"/>
      <polyline class="cls-1" points="359.85 945.73 319.13 1019.16 321.96 1020.73 362.68 947.29"/>
      <polyline class="cls-1" points="-22.07 734.75 21.05 806.86 24.32 804.89 -18.79 732.8"/>
      <polyline class="cls-1" points="101.14 442.82 185.14 441.53 185.08 437.72 101.08 439"/>
      <polyline class="cls-1" points="104.06 514.63 144.78 441.2 141.95 439.63 101.24 513.06"/>
      <polygon class="cls-1" points="106.09 658.14 62.91 586.63 103.12 514.11 100.29 512.54 59.02 586.98 102.8 660.08 106.09 658.14 106.09 658.14"/>
      <polyline class="cls-1" points="104.48 661.01 188.46 659.73 188.42 655.92 104.43 657.2"/>
      <polyline class="cls-1" points="399.51 725.45 315.51 726.73 315.58 730.55 399.56 729.26"/>
      <polyline class="cls-1" points="67.42 877 24.32 804.89 21.05 806.86 64.16 878.95"/>
      <polyline class="cls-1" points="17.09 440.29 -66.9 441.57 -66.85 445.38 17.15 444.1"/>
      <polyline class="cls-1" points="61.31 585.13 -22.68 586.41 -22.63 590.22 61.37 588.94"/>
      <polyline class="cls-1" points="147.53 729.35 63.54 730.63 63.6 734.44 147.59 733.15"/>
      <polygon class="cls-1" points="529.15 1088.84 489.44 1160.45 407.92 1161.84 365.31 1091.28 404.97 1019.75 487.54 1018.93 530.09 1090.09 533.37 1088.13 489.68 1015.09 403.22 1016.25 361.16 1091.75 405.54 1165.98 492.03 1164.66 533.59 1090.07 529.57 1089.07 529.15 1088.84"/>
      <polygon class="cls-1" points="67.46 1022.4 27.05 1094.95 -54.89 1096.2 -96.94 1025.87 -57.36 954.48 24.47 953.25 67.01 1024.41 70.28 1022.45 26.6 949.4 -59.11 950.99 -100.74 1025.72 -56.67 1099.42 29.18 1098.1 70.44 1024.05 67.46 1022.4 67.46 1022.4"/>
      <polygon class="cls-1" points="150.38 1021.6 110.49 1093.54 28.83 1094.87 -13.64 1024.38 26.02 952.85 108.45 951.95 151 1023.1 154.27 1021.14 110.6 948.11 24.27 949.34 -17.62 1024.51 26.77 1098.75 113.26 1097.42 154.82 1022.83 150.66 1021.76 150.38 1021.6"/>
      <polygon class="cls-1" points="18.34 660.35 -21.39 732 -103.35 733.16 -145.53 662.85 -105.86 591.3 -23.72 590.24 18.82 661.4 22.1 659.43 -21.59 586.39 -107.61 587.81 -149.65 663.26 -105.26 737.49 -18.78 736.17 22.78 661.58 18.32 660.34 18.34 660.35"/>
      <polygon class="cls-1" points="103.24 658.19 62.81 730.74 -19.12 731.99 -61.17 661.66 -21.53 590.18 60.26 588.93 102.8 660.08 106.09 658.14 62.41 585.09 -23.29 586.68 -64.98 661.51 -20.91 735.21 64.95 733.9 106.2 659.84 103.24 658.19 103.24 658.19"/>
      <polygon class="cls-1" points="143.43 585.7 103.65 657.44 21.52 658.51 -20.48 588.29 19.19 516.75 101.15 515.59 143.69 586.74 146.96 584.79 103.3 511.75 16.49 512.73 -25.5 588.09 18.89 662.33 105.37 661 146.92 586.4 143.24 585.59 143.43 585.7"/>
      <polygon class="cls-1" points="196.98 731.1 214.12 700.32 248.26 699.8 265.79 729.1 249.03 759.33 214.83 759.95 196.62 729.51 193.35 731.46 212.69 763.8 250.78 762.83 269.76 728.76 249.97 695.64 211.39 696.23 193.16 728.98 196.98 731.1 196.98 731.1"/>
      <polygon class="cls-1" points="149.2 732.91 189.45 660.33 271.37 659.15 313.58 729.48 273.92 801.02 191.75 802.07 149.2 730.91 145.93 732.88 189.61 805.91 275.67 804.52 318.21 728.12 273.83 653.9 187.36 655.22 145.8 729.8 149.19 732.91 149.2 732.91"/>
      <path class="cls-1" d="M405.1,1091.04l-1.91.02c.26,16.87,9.87,31.42,23.82,38.76,6.38,3.37,13.68,5.22,21.41,5.1,16.87-.26,31.42-9.87,38.76-23.81,3.37-6.38,5.23-13.69,5.1-21.41-.25-16.87-9.86-31.41-23.8-38.75-6.38-3.37-13.7-5.22-21.42-5.11-16.87.26-31.42,9.87-38.76,23.81-3.37,6.38-5.22,13.7-5.1,21.41l1.91-.02,1.9-.03c-.11-7.08,1.58-13.73,4.66-19.57,6.72-12.76,20.01-21.54,35.45-21.78,7.06-.11,13.73,1.58,19.58,4.67,12.76,6.72,21.54,20.01,21.77,35.44.11,7.08-1.59,13.74-4.67,19.58-6.72,12.76-20.01,21.54-35.45,21.78-7.06.11-13.73-1.58-19.57-4.66-12.77-6.72-21.55-20.01-21.78-35.44l-1.9.03h0Z"/>
      <path class="cls-1" d="M18.61,587.88l-1.91.02c.26,16.87,9.87,31.42,23.81,38.76,6.38,3.37,13.69,5.23,21.41,5.1,16.87-.26,31.41-9.86,38.76-23.81,3.37-6.38,5.22-13.7,5.1-21.41-.26-16.87-9.87-31.42-23.81-38.76-6.38-3.37-13.7-5.22-21.41-5.1-16.87.26-31.42,9.87-38.76,23.81-3.37,6.38-5.22,13.68-5.1,21.41l1.91-.02,1.91-.02c-.1-7.07,1.59-13.74,4.66-19.57,6.73-12.75,20.01-21.54,35.44-21.78,7.07-.1,13.73,1.58,19.57,4.66,12.76,6.72,21.55,20.01,21.78,35.44.09,7.07-1.58,13.73-4.66,19.57-6.72,12.76-20.01,21.54-35.45,21.78-7.06.11-13.73-1.58-19.57-4.66-12.76-6.72-21.54-20.01-21.78-35.44l-1.91.02h0Z"/>
      <path class="cls-1" d="M150.5,882.23c3.08-.05,5.55-2.6,5.5-5.68-.06-3.1-2.59-5.56-5.67-5.51-3.1.04-5.56,2.58-5.5,5.68.04,3.09,2.57,5.55,5.67,5.51h0Z"/>
      <path class="cls-1" d="M68.73,1028.98c3.08-.05,5.56-2.59,5.5-5.68-.04-3.09-2.59-5.56-5.67-5.51-3.08.05-5.56,2.59-5.5,5.68.04,3.09,2.6,5.55,5.67,5.51h0Z"/>
      <path class="cls-1" d="M529.58,949.21c3.08-.05,5.56-2.59,5.5-5.68-.04-3.09-2.59-5.56-5.67-5.51-3.08.05-5.55,2.6-5.5,5.68.06,3.1,2.59,5.56,5.67,5.51h0Z"/>
      <path class="cls-1" d="M236.72,1026.39c3.1-.04,5.56-2.59,5.52-5.67-.06-3.1-2.59-5.56-5.68-5.51-3.08.05-5.55,2.6-5.5,5.68.06,3.1,2.6,5.55,5.67,5.51h0Z"/>
      <path class="cls-1" d="M109.31,944.67c-3.08.05-5.55,2.6-5.5,5.68.06,3.1,2.59,5.56,5.67,5.51,3.1-.04,5.56-2.59,5.52-5.67-.06-3.1-2.59-5.56-5.68-5.51h0Z"/>
      <path class="cls-1" d="M152.55,1016.54c-3.08.05-5.56,2.59-5.5,5.68.04,3.09,2.59,5.56,5.67,5.51,3.08-.05,5.56-2.59,5.5-5.68-.04-3.09-2.59-5.56-5.67-5.51h0Z"/>
      <path class="cls-1" d="M361.43,940.57c-3.08.05-5.56,2.58-5.5,5.68.04,3.09,2.59,5.56,5.67,5.51,3.08-.05,5.56-2.58,5.5-5.68-.05-3.09-2.59-5.56-5.67-5.51h0Z"/>
      <path class="cls-1" d="M23.23,800.25c-3.1.04-5.56,2.59-5.5,5.68.04,3.09,2.6,5.55,5.67,5.51,3.08-.05,5.55-2.6,5.5-5.68-.06-3.1-2.59-5.56-5.67-5.51h0Z"/>
      <path class="cls-1" d="M147.48,725.66c-3.08.05-5.56,2.59-5.5,5.68.04,3.09,2.59,5.56,5.67,5.51,3.08-.05,5.55-2.6,5.5-5.68-.05-3.09-2.59-5.56-5.67-5.51h0Z"/>
      <path class="cls-1" d="M142.94,446.33c3.08-.05,5.56-2.59,5.5-5.68-.05-3.09-2.59-5.56-5.67-5.51-3.09.05-5.55,2.6-5.51,5.67.05,3.09,2.59,5.56,5.67,5.51h0Z"/>
      <path class="cls-1" d="M22.77,811.47c3.08-.05,5.56-2.58,5.5-5.68-.04-3.09-2.59-5.56-5.67-5.51-3.08.05-5.56,2.59-5.5,5.68.04,3.09,2.59,5.56,5.67,5.51h0Z"/>
      <path class="cls-1" d="M61.03,581.86c-3.09.05-5.56,2.59-5.51,5.67.05,3.09,2.58,5.56,5.67,5.51,3.09-.05,5.56-2.59,5.5-5.68-.04-3.09-2.58-5.56-5.67-5.51h0Z"/>
      <path class="cls-1" d="M65.71,872.38c-3.1.04-5.56,2.59-5.5,5.68.04,3.09,2.57,5.55,5.67,5.51,3.08-.05,5.55-2.6,5.5-5.68-.05-3.09-2.59-5.56-5.67-5.51h0Z"/>
      <path class="cls-1" d="M315.47,723.73c-3.08.05-5.56,2.59-5.5,5.68.04,3.09,2.59,5.56,5.67,5.51,3.08-.05,5.56-2.59,5.5-5.68-.04-3.09-2.59-5.56-5.67-5.51h0Z"/>
      <path class="cls-1" d="M399.45,721.76c-3.08.05-5.55,2.6-5.5,5.68.06,3.1,2.6,5.55,5.67,5.51,3.08-.05,5.56-2.59,5.5-5.68-.04-3.09-2.6-5.55-5.67-5.51h0Z"/>
    </g>
  </g>
  <g class="cls-3">
    <g id="Patron-2" data-name="Patron" class="cls-2">
      <polygon class="cls-1" points="1767.2 1022.68 1768.62 1020.65 1768.08 1019.7 1681.6 1018.37 1637.21 1092.61 1679.82 1169.1 1766.3 1170.42 1810.69 1096.19 1769.13 1021.59 1767.46 1022.53 1767.43 1024.43 1767.46 1022.53 1765.37 1023.69 1805.25 1095.62 1763.58 1165.66 1681.12 1164.78 1641.45 1093.24 1683.96 1022.74 1766.85 1024 1767.2 1022.68 1767.2 1022.68"/>
      <polygon class="cls-1" points="1934.9 1024.47 1932.66 1025.71 1933.2 1026.67 2019.69 1027.99 2064.07 953.76 2021.98 878.21 1935.5 876.89 1891.12 951.12 1932.66 1025.71 1934.34 1024.78 1934.37 1022.86 1934.34 1024.78 1936.58 1023.54 1896.16 950.99 1938.22 880.65 2020.15 881.91 2060.03 953.5 2017.97 1023.82 1934.94 1022.55 1934.9 1024.47 1934.9 1024.47"/>
      <polygon class="cls-1" points="1932.96 1170.79 1930.65 1170.84 1931.2 1171.8 2017.68 1173.12 2062.06 1098.89 2020.5 1024.29 1934.03 1022.96 1889.64 1097.19 1931.19 1171.79 1932.87 1170.84 1932.9 1168.94 1932.87 1170.84 1934.01 1170.21 1893.47 1097.11 1935.93 1026.63 2017.61 1027.95 2057.28 1099.49 2015.55 1169.56 1932.66 1168.29 1932.96 1170.79 1932.96 1170.79"/>
      <polygon class="cls-1" points="1848.91 1169.39 1846.81 1170.56 1847.07 1171.04 1933.71 1172.11 1977.94 1098.13 1935.99 1022.82 1849.8 1021.51 1805.27 1095.65 1846.81 1170.56 1848.91 1169.39 1848.67 1167 1848.39 1168.45 1850.05 1167.53 1810.1 1095.48 1851.94 1025.35 1934.24 1026.33 1973.9 1097.86 1931.57 1168.27 1848.67 1167 1848.91 1169.39 1848.91 1169.39"/>
      <polygon class="cls-1" points="1596.86 1165.13 1594.6 1166.38 1595.15 1167.35 1681.63 1168.67 1726.02 1094.44 1683.93 1018.89 1597.45 1017.56 1553.07 1091.79 1594.61 1166.38 1596.29 1165.45 1596.32 1163.54 1596.29 1165.45 1598.53 1164.21 1558.11 1091.66 1600.17 1021.32 1682.1 1022.58 1721.98 1094.17 1679.93 1164.5 1596.89 1163.23 1596.86 1165.13 1596.86 1165.13"/>
      <polygon class="cls-1" points="1896.68 805.63 1895.41 807.57 1895.57 807.86 1981.9 809.11 2026.29 735.03 1984.48 659.64 1897.99 658.49 1853.77 732.47 1894.89 806.63 1896.68 805.63 1896.86 803.99 1896.68 805.63 1897.71 805.06 1857.66 732.82 1900.12 662.34 1981.79 663.66 2021.46 735.2 1979.75 805.26 1896.86 803.99 1896.68 805.63 1896.68 805.63"/>
      <polygon class="cls-1" points="1639.8 1091.02 1639.75 1094.82 1724.84 1096.13 1768.51 1023.08 1765.24 1021.13 1722.7 1092.28 1639.8 1091.02 1639.8 1091.02"/>
      <polyline class="cls-1" points="1850.89 1021.48 1766.89 1020.2 1766.85 1024 1850.84 1025.29"/>
      <polyline class="cls-1" points="1432.03 942.35 1348.05 941.06 1347.99 944.87 1431.99 946.15"/>
      <polyline class="cls-1" points="1811.33 948.97 1770.61 875.53 1767.79 877.1 1808.51 950.53"/>
      <polyline class="cls-1" points="1432.56 1016.2 1391.85 942.77 1389.02 944.33 1429.74 1017.77"/>
      <polygon class="cls-1" points="1679.02 1165.32 1682.29 1167.28 1725.77 1094.34 1684.76 1020.38 1681.93 1021.95 1721.88 1093.99 1679.02 1165.32 1679.02 1165.32"/>
      <polygon class="cls-1" points="1427.03 1161.47 1430.31 1163.43 1473.76 1090.5 1432.56 1016.2 1429.74 1017.77 1469.87 1090.15 1427.03 1161.47 1427.03 1161.47"/>
      <polyline class="cls-1" points="1809.96 951.95 1893.95 953.23 1894.01 949.42 1810.01 948.14"/>
      <polyline class="cls-1" points="1894.89 806.63 1935.61 880.06 1938.43 878.49 1897.71 805.06"/>
      <polyline class="cls-1" points="1725.4 1095.2 1768.52 1023.1 1765.24 1021.14 1722.13 1093.25"/>
      <polyline class="cls-1" points="1515.99 947.43 1599.98 948.72 1600.02 944.9 1516.04 943.63"/>
      <polyline class="cls-1" points="1556.84 947.29 1597.55 1020.73 1600.38 1019.16 1559.66 945.73"/>
      <polyline class="cls-1" points="1938.31 732.8 1895.19 804.89 1898.46 806.86 1941.58 734.75"/>
      <polyline class="cls-1" points="1818.43 439 1734.44 437.72 1734.37 441.53 1818.37 442.82"/>
      <polyline class="cls-1" points="1818.28 513.06 1777.56 439.63 1774.73 441.2 1815.45 514.63"/>
      <polygon class="cls-1" points="1813.43 658.14 1816.71 660.08 1860.49 586.98 1819.22 512.54 1816.39 514.11 1856.61 586.63 1813.43 658.14 1813.43 658.14"/>
      <polyline class="cls-1" points="1815.09 657.2 1731.09 655.92 1731.05 659.73 1815.03 661.01"/>
      <polyline class="cls-1" points="1519.95 729.26 1603.93 730.55 1604 726.73 1520 725.45"/>
      <polyline class="cls-1" points="1855.35 878.95 1898.46 806.86 1895.19 804.89 1852.09 877"/>
      <polyline class="cls-1" points="1902.36 444.1 1986.36 445.38 1986.41 441.57 1902.42 440.29"/>
      <polyline class="cls-1" points="1858.14 588.94 1942.14 590.22 1942.19 586.41 1858.2 585.13"/>
      <polyline class="cls-1" points="1771.92 733.15 1855.91 734.44 1855.97 730.63 1771.98 729.35"/>
      <polygon class="cls-1" points="1389.94 1089.07 1385.92 1090.07 1427.48 1164.66 1513.97 1165.98 1558.35 1091.75 1516.29 1016.25 1429.83 1015.09 1386.14 1088.13 1389.42 1090.09 1431.97 1018.93 1514.54 1019.75 1554.2 1091.28 1511.6 1161.84 1430.07 1160.45 1390.37 1088.84 1389.94 1089.07"/>
      <polygon class="cls-1" points="1852.05 1022.4 1849.08 1024.05 1890.33 1098.1 1976.19 1099.42 2020.25 1025.72 1978.63 950.99 1892.91 949.4 1849.23 1022.45 1852.5 1024.41 1895.05 953.25 1976.87 954.48 2016.45 1025.87 1974.4 1096.2 1892.46 1094.95 1852.05 1022.4 1852.05 1022.4"/>
      <polygon class="cls-1" points="1768.85 1021.76 1764.7 1022.83 1806.25 1097.42 1892.74 1098.75 1937.13 1024.51 1895.24 949.34 1808.91 948.11 1765.24 1021.14 1768.52 1023.1 1811.06 951.95 1893.49 952.85 1933.16 1024.38 1890.68 1094.87 1809.02 1093.54 1769.14 1021.6 1768.85 1021.76"/>
      <polygon class="cls-1" points="1901.19 660.34 1896.74 661.58 1938.29 736.17 2024.77 737.49 2069.16 663.26 2027.13 587.81 1941.1 586.39 1897.42 659.43 1900.7 661.4 1943.24 590.24 2025.37 591.3 2065.04 662.85 2022.86 733.16 1940.9 732 1901.18 660.35 1901.19 660.34"/>
      <polygon class="cls-1" points="1816.28 658.19 1813.31 659.84 1854.56 733.9 1940.42 735.21 1984.49 661.51 1942.8 586.68 1857.1 585.09 1813.43 658.14 1816.71 660.08 1859.25 588.93 1941.04 590.18 1980.68 661.66 1938.63 731.99 1856.7 730.74 1816.28 658.19 1816.28 658.19"/>
      <polygon class="cls-1" points="1776.27 585.59 1772.59 586.4 1814.14 661 1900.62 662.33 1945.01 588.09 1903.02 512.73 1816.22 511.75 1772.55 584.79 1775.82 586.74 1818.36 515.59 1900.33 516.75 1940 588.29 1897.99 658.51 1815.86 657.44 1776.08 585.7 1776.27 585.59"/>
      <polygon class="cls-1" points="1722.53 731.1 1726.35 728.98 1708.12 696.23 1669.55 695.64 1649.75 728.76 1668.74 762.83 1706.82 763.8 1726.17 731.46 1722.89 729.51 1704.68 759.95 1670.48 759.33 1653.72 729.1 1671.25 699.8 1705.39 700.32 1722.53 731.1 1722.53 731.1"/>
      <polygon class="cls-1" points="1770.32 732.91 1773.71 729.8 1732.16 655.22 1645.68 653.9 1601.3 728.12 1643.84 804.52 1729.9 805.91 1773.58 732.88 1770.31 730.91 1727.76 802.07 1645.6 801.02 1605.93 729.48 1648.15 659.15 1730.07 660.33 1770.31 732.91 1770.32 732.91"/>
      <path class="cls-1" d="M1514.41,1091.06h0l-1.9-.03c-.23,15.43-9.01,28.72-21.78,35.44-5.84,3.08-12.51,4.77-19.57,4.66-15.44-.24-28.73-9.02-35.45-21.78-3.08-5.84-4.78-12.5-4.67-19.58.23-15.43,9.01-28.72,21.77-35.44,5.85-3.08,12.52-4.77,19.58-4.67,15.44.24,28.73,9.02,35.45,21.78,3.08,5.84,4.77,12.49,4.66,19.57l1.9.03,1.91.02c.12-7.71-1.73-15.03-5.1-21.41-7.34-13.94-21.88-23.55-38.76-23.81-7.72-.11-15.04,1.74-21.42,5.11-13.94,7.34-23.55,21.88-23.8,38.75-.13,7.72,1.73,15.03,5.1,21.41,7.34,13.94,21.88,23.55,38.76,23.81,7.72.12,15.03-1.73,21.41-5.1,13.95-7.34,23.56-21.89,23.82-38.76l-1.91-.02h0Z"/>
      <path class="cls-1" d="M1900.91,587.88h0l-1.91-.02c-.24,15.43-9.02,28.72-21.78,35.44-5.84,3.08-12.51,4.77-19.57,4.66-15.44-.24-28.73-9.02-35.45-21.78-3.08-5.84-4.75-12.5-4.66-19.57.23-15.43,9.02-28.72,21.78-35.44,5.84-3.08,12.5-4.76,19.57-4.66,15.43.24,28.71,9.03,35.44,21.78,3.07,5.83,4.76,12.5,4.66,19.57l1.91.02,1.91.02c.12-7.72-1.73-15.03-5.1-21.41-7.34-13.94-21.88-23.55-38.76-23.81-7.71-.12-15.03,1.73-21.41,5.1-13.94,7.34-23.55,21.88-23.81,38.76-.12,7.71,1.73,15.03,5.1,21.41,7.34,13.95,21.88,23.55,38.76,23.81,7.72.13,15.03-1.73,21.41-5.1,13.94-7.34,23.55-21.88,23.81-38.76l-1.91-.02h0Z"/>
      <path class="cls-1" d="M1769.01,882.23c3.1.04,5.64-2.42,5.67-5.51.06-3.1-2.4-5.64-5.5-5.68-3.08-.05-5.62,2.41-5.67,5.51-.05,3.08,2.42,5.63,5.5,5.68h0Z"/>
      <path class="cls-1" d="M1850.78,1028.98c3.08.04,5.64-2.42,5.67-5.51.06-3.09-2.42-5.63-5.5-5.68-3.08-.05-5.64,2.42-5.67,5.51-.06,3.09,2.42,5.63,5.5,5.68h0Z"/>
      <path class="cls-1" d="M1389.93,949.21c3.08.05,5.62-2.41,5.67-5.51.05-3.08-2.42-5.63-5.5-5.68-3.08-.05-5.64,2.42-5.67,5.51-.06,3.09,2.42,5.63,5.5,5.68h0Z"/>
      <path class="cls-1" d="M1682.79,1026.4h0c3.08.04,5.62-2.41,5.67-5.51.05-3.08-2.42-5.63-5.5-5.68-3.09-.05-5.63,2.42-5.68,5.51-.04,3.08,2.42,5.63,5.52,5.67h0Z"/>
      <path class="cls-1" d="M1810.19,944.67h0c-3.09-.05-5.63,2.42-5.68,5.51-.04,3.08,2.42,5.63,5.52,5.67,3.08.05,5.62-2.41,5.67-5.51.05-3.08-2.42-5.63-5.5-5.68h0Z"/>
      <path class="cls-1" d="M1766.96,1016.54c-3.08-.05-5.64,2.42-5.67,5.51-.06,3.09,2.42,5.63,5.5,5.68,3.08.05,5.64-2.42,5.67-5.51.06-3.09-2.42-5.63-5.5-5.68h0Z"/>
      <path class="cls-1" d="M1558.08,940.57c-3.08-.05-5.63,2.42-5.67,5.51-.06,3.1,2.42,5.63,5.5,5.68,3.08.05,5.64-2.42,5.67-5.51.06-3.1-2.42-5.63-5.5-5.68h0Z"/>
      <path class="cls-1" d="M1896.28,800.25c-3.08-.05-5.62,2.41-5.67,5.51-.05,3.08,2.42,5.63,5.5,5.68,3.08.04,5.64-2.42,5.67-5.51.06-3.09-2.4-5.64-5.5-5.68h0Z"/>
      <path class="cls-1" d="M1772.04,725.66c-3.08-.05-5.63,2.42-5.67,5.51-.05,3.08,2.42,5.63,5.5,5.68,3.08.05,5.64-2.42,5.67-5.51.06-3.09-2.42-5.63-5.5-5.68h0Z"/>
      <path class="cls-1" d="M1776.58,446.33h0c3.08.05,5.63-2.42,5.67-5.51.04-3.08-2.42-5.63-5.51-5.67-3.08-.05-5.63,2.42-5.67,5.51-.06,3.09,2.42,5.63,5.5,5.68h0Z"/>
      <path class="cls-1" d="M1896.75,811.47c3.08.05,5.64-2.42,5.67-5.51.06-3.09-2.42-5.63-5.5-5.68-3.08-.05-5.64,2.42-5.67,5.51-.06,3.1,2.42,5.63,5.5,5.68h0Z"/>
      <path class="cls-1" d="M1858.49,581.86h0c-3.09-.05-5.64,2.42-5.67,5.51-.06,3.09,2.41,5.63,5.5,5.68,3.09.05,5.63-2.42,5.67-5.51.05-3.08-2.42-5.63-5.51-5.67h0Z"/>
      <path class="cls-1" d="M1853.8,872.38c-3.08-.05-5.63,2.42-5.67,5.51-.05,3.08,2.42,5.63,5.5,5.68,3.1.04,5.64-2.42,5.67-5.51.06-3.09-2.4-5.64-5.5-5.68h0Z"/>
      <path class="cls-1" d="M1604.04,723.73c-3.08-.05-5.64,2.42-5.67,5.51-.06,3.09,2.42,5.63,5.5,5.68,3.08.05,5.64-2.42,5.67-5.51.06-3.09-2.42-5.63-5.5-5.68h0Z"/>
      <path class="cls-1" d="M1520.06,721.76c-3.08-.04-5.64,2.42-5.67,5.51-.06,3.09,2.42,5.63,5.5,5.68,3.08.04,5.62-2.41,5.67-5.51.05-3.08-2.42-5.63-5.5-5.68h0Z"/>
    </g>
  </g>
</svg>