<?xml version="1.0" ?>
<!--
************* Copyright (c) 2015 Pareto Softare, LLC DBA Simplemaps.com *******************		
************* Free for Commercial Use, full terms at  http://simplemaps.com/resources/svg-license ************
************* Attribution is appreciated! http://simplemaps.com ***************************
-->
<!DOCTYPE svg
  PUBLIC '-//W3C//DTD SVG 1.1//EN'
  'http://www.w3.org/Graphics/SVG/1.1/DTD/svg11.dtd'>
<svg enable_background="new 0 0 1000 1013" height="1013px" pretty_print="True" style="stroke-linejoin: round; stroke:#000; fill: none;" version="1.1" viewBox="0 0 1000 1013" width="1000px" xmlns="http://www.w3.org/2000/svg" xmlns:xlink="http://www.w3.org/1999/xlink">
utf-8<defs>
utf-8utf-8<style type="text/css">
<![CDATA[path { fill-rule: evenodd; }]]>utf-8utf-8</style>
utf-8</defs>
utf-8<metadata>
utf-8utf-8<views>
utf-8utf-8utf-8<view h="1013.7219331" padding="0" w="1000">
utf-8utf-8utf-8utf-8<proj flip="auto" id="robinson" lon0="-2.68197133722"/>
utf-8utf-8utf-8utf-8<bbox h="536.44" w="529.7" x="-482.2" y="-733.79"/>
utf-8utf-8utf-8</view>
utf-8utf-8</views>
utf-8</metadata>
utf-8<g class="" id="provinces">
utf-8utf-8<path d="M844.1,21.7L842.7,21.9L843.2,23.5L836.6,22.8L835.3,21.7L835.3,18.9L834.0,18.0L832.9,19.5L831.0,19.7L830.4,19.2L830.0,19.5L829.8,23.4L830.9,23.8L833.2,22.8L832.9,24.6L834.2,26.5L828.2,25.9L827.0,27.3L828.0,29.2L830.6,27.6L830.0,29.8L830.7,31.3L832.2,30.8L837.8,34.8L837.9,35.1L837.9,35.4L841.7,38.4L845.8,38.8L848.3,39.5L848.8,39.6L848.9,39.1L848.4,36.5L846.6,36.2L848.8,34.6L850.8,35.1L851.0,32.8L852.1,31.8L853.2,28.6L852.8,27.3L852.1,27.3L850.3,25.8L845.3,25.3L844.0,24.8L845.8,22.8L845.4,21.5L844.1,21.7Z M843.0,31.1L846.1,34.4L843.1,34.8L838.5,30.5L843.0,31.1Z " data-id="ES.PV" data-name="Álava" id="ES.PV"/>
utf-8utf-8<path d="M886.1,155.2L885.9,153.1L884.5,150.1L881.6,150.7L880.1,150.2L877.3,146.2L873.6,136.7L871.5,135.2L871.2,135.1L865.0,138.3L864.2,139.6L861.2,138.8L858.5,139.2L855.9,137.1L857.0,140.0L853.9,139.6L850.8,141.3L848.6,141.1L845.1,137.7L841.2,138.3L839.1,138.4L839.6,140.0L836.4,144.2L837.3,146.8L835.4,150.3L837.5,151.5L839.2,155.2L840.5,155.6L841.4,157.9L838.7,163.0L838.5,163.4L839.4,164.0L843.2,166.8L845.3,167.7L845.8,170.9L846.8,172.2L844.0,177.5L843.7,177.9L845.8,178.9L848.6,179.7L848.8,179.8L849.1,179.7L849.5,178.5L856.5,171.2L858.0,171.5L862.0,170.0L864.1,168.5L867.0,170.4L871.4,168.3L872.8,159.5L874.4,158.0L879.5,156.4L882.0,158.5L883.4,159.5L883.8,159.4L886.5,158.6L885.3,156.7L885.6,155.5L885.8,155.4L886.1,155.2Z " data-id="ES.CM" data-name="Albacete" id="ES.CM"/>
utf-8utf-8<path d="M890.1,185.4L892.0,181.4L894.1,174.8L896.8,173.9L896.5,170.9L906.5,163.4L907.6,163.4L908.5,161.4L913.7,158.5L915.8,155.8L909.7,152.7L909.1,152.3L904.0,153.2L901.9,152.3L899.1,154.3L894.5,155.1L896.8,156.7L893.1,157.5L891.0,156.4L888.4,156.6L886.2,155.7L885.8,155.4L885.6,155.5L885.3,156.7L886.5,158.6L883.8,159.4L883.4,159.5L883.9,161.6L883.5,163.8L881.8,167.2L882.7,169.5L884.8,171.8L883.1,177.4L888.1,184.8L890.1,185.5L890.1,185.4Z " data-id="ES.VC" data-name="Alicante" id="ES.VC"/>
utf-8utf-8<path d="M852.5,183.2L850.8,184.3L850.5,188.1L849.5,190.2L849.6,192.7L848.0,193.0L848.5,195.9L845.0,196.9L840.9,200.8L840.5,205.9L835.3,204.3L834.7,206.9L833.1,209.1L831.7,213.6L829.8,215.5L830.8,217.7L827.8,219.5L828.1,220.9L829.5,220.8L834.5,221.3L836.2,221.9L841.5,221.5L843.0,218.5L849.3,218.2L853.3,221.5L854.7,220.9L859.4,214.9L860.0,214.8L862.6,206.0L867.0,200.8L867.1,200.4L864.5,198.5L862.0,198.0L857.7,191.3L857.8,187.3L858.5,184.8L853.4,183.8L852.5,183.2Z " data-id="ES.AN" data-name="Almería" id="ES.AN"/>
utf-8utf-8<path d="M790.3,11.5L787.7,10.5L779.1,9.3L776.1,7.8L766.6,7.1L762.6,4.0L760.8,6.3L753.6,6.6L752.8,6.0L746.6,6.7L746.7,7.3L742.1,6.5L733.1,7.2L732.0,9.6L731.9,9.5L728.7,12.1L731.1,15.1L731.3,16.4L736.2,18.9L737.0,20.0L734.2,21.8L733.0,24.0L736.8,25.7L736.9,26.8L737.7,27.0L738.5,27.5L745.2,26.4L745.7,24.8L748.7,22.7L752.0,23.8L754.9,23.4L755.8,22.3L758.8,23.1L761.8,25.1L765.1,22.9L770.9,23.4L771.2,22.8L780.4,20.9L781.8,18.8L785.8,17.0L787.0,17.4L787.7,18.5L788.0,18.5L791.0,16.0L793.5,15.2L795.8,11.9L790.3,11.5Z " data-id="ES.AS" data-name="Asturias" id="ES.AS"/>
utf-8utf-8<path d="M787.2,81.5L784.9,82.4L782.6,80.9L779.2,81.3L778.7,81.6L778.2,82.6L779.4,85.6L778.9,88.3L777.6,89.8L775.4,93.8L772.3,95.8L768.4,99.7L770.3,99.7L767.4,103.5L765.7,102.2L763.7,104.2L763.9,106.0L762.7,107.7L763.7,108.1L767.4,110.7L771.8,108.9L772.4,112.6L772.8,113.2L775.3,113.5L777.0,114.1L780.9,112.1L781.6,113.3L783.1,112.7L786.1,109.7L786.3,108.7L789.1,108.2L789.4,109.8L791.6,110.5L792.3,110.2L792.7,109.7L793.5,107.6L796.0,105.2L798.5,104.1L799.0,100.4L800.3,97.4L803.0,96.0L803.2,95.4L802.6,95.1L801.0,95.0L800.6,95.0L800.2,95.2L800.7,96.2L799.0,96.3L798.5,96.7L796.5,97.1L794.7,90.9L793.0,87.3L789.2,82.9L789.6,80.9L787.2,81.5Z " data-id="ES.CL" data-name="Ávila" id="ES.CL"/>
utf-8utf-8<path d="M779.8,157.0L780.4,156.9L781.9,153.3L784.1,152.2L784.7,150.8L783.7,147.5L785.7,142.2L789.0,142.9L787.1,139.1L789.1,135.3L788.8,134.2L788.5,134.6L787.2,135.2L786.8,135.7L785.6,136.1L783.9,136.9L782.2,136.1L781.0,136.7L774.4,138.7L772.5,138.1L771.1,142.3L766.0,141.9L764.8,142.5L764.7,145.3L762.8,145.9L759.7,143.9L756.7,145.9L754.2,144.5L751.0,147.5L747.2,145.3L746.6,142.7L745.2,143.3L737.8,142.2L737.2,142.9L734.2,140.9L735.5,138.9L734.3,136.5L732.0,136.3L727.9,134.7L728.1,138.3L726.1,136.4L723.8,140.1L722.6,139.9L722.2,140.5L729.2,146.4L728.2,150.3L721.2,157.7L719.4,164.7L719.4,166.4L722.7,170.3L727.1,174.5L729.1,173.9L729.4,174.1L733.3,175.0L732.9,176.7L738.3,178.0L739.0,179.6L741.0,180.0L742.5,178.7L748.7,182.1L749.1,182.5L749.5,182.1L755.2,180.3L756.4,176.6L761.5,174.7L763.8,176.1L764.9,176.2L766.1,175.3L766.6,173.4L765.5,169.9L765.4,166.9L769.4,164.0L770.3,162.4L778.7,157.3L779.4,157.2L779.8,157.0Z " data-id="ES.EX" data-name="Badajoz" id="ES.EX"/>
utf-8utf-8<path d="M947.2,156.5L945.8,159.1L947.7,158.7L949.4,159.7L950.9,158.9L947.2,156.5Z M950.7,145.2L943.4,147.5L943.6,149.6L941.7,150.4L942.5,153.1L944.7,152.9L945.4,153.9L950.7,149.0L950.7,145.2Z M987.0,144.1L985.9,143.1L985.3,143.7L987.0,144.1Z M991.8,117.9L985.5,119.6L977.9,124.1L970.7,129.1L971.4,131.7L973.9,132.1L974.3,133.6L978.4,130.6L980.7,131.9L981.2,135.8L982.9,137.0L987.0,137.4L989.3,139.9L994.7,135.2L994.9,133.4L998.6,124.7L997.1,123.9L993.0,124.8L990.8,123.5L991.8,117.9Z " data-id="ES.PM" data-name="Baleares" id="ES.PM"/>
utf-8utf-8<path d="M956.8,45.5L953.6,46.0L952.7,47.2L954.1,49.7L953.4,50.8L951.5,60.1L949.7,62.0L946.2,61.1L945.8,63.9L946.6,65.8L945.9,67.4L945.5,67.9L946.1,67.9L945.6,69.6L947.9,73.1L949.2,73.8L950.5,76.4L950.3,78.0L951.5,79.7L956.5,78.3L962.6,77.2L964.4,76.3L968.6,71.3L977.6,67.0L980.8,65.7L980.5,63.4L977.2,63.0L974.9,63.5L969.5,58.3L970.7,58.8L973.7,54.1L968.0,50.4L964.0,51.1L962.2,49.2L962.0,46.2L958.6,45.1L956.8,45.5Z " data-id="ES.CT" data-name="Barcelona" id="ES.CT"/>
utf-8utf-8<path d="M843.0,31.1L838.5,30.5L843.1,34.8L846.1,34.4L843.0,31.1Z M830.4,19.2L830.4,18.9L827.0,18.2L824.8,19.4L823.3,19.9L822.5,20.0L817.9,18.8L812.7,21.6L812.6,22.5L809.6,24.6L809.7,27.1L812.0,25.8L812.8,26.6L810.8,27.9L812.8,28.1L813.2,30.0L810.6,31.2L807.3,31.3L806.3,31.5L806.0,32.0L801.7,33.2L800.9,36.3L802.1,40.9L799.9,41.4L801.2,43.1L802.2,47.8L803.3,49.3L802.9,50.7L805.0,50.9L807.3,55.6L810.2,55.1L810.5,56.4L808.5,57.1L806.6,58.9L806.9,61.3L806.9,62.0L806.5,62.8L807.0,66.2L808.0,66.9L808.3,67.7L810.6,68.8L813.2,70.2L813.6,71.5L818.7,68.2L819.5,67.8L819.5,67.3L821.6,67.5L823.3,64.4L826.3,61.9L826.5,59.0L829.0,61.2L835.2,54.3L835.8,54.1L835.6,53.1L832.9,52.1L831.0,48.2L831.1,44.7L831.8,43.8L831.6,37.3L836.1,35.7L837.9,35.1L837.8,34.8L832.2,30.8L830.7,31.3L830.0,29.8L830.6,27.6L828.0,29.2L827.0,27.3L828.2,25.9L834.2,26.5L832.9,24.6L833.2,22.8L830.9,23.8L829.8,23.4L830.0,19.5L830.4,19.2Z " data-id="ES.CL" data-name="Burgos" id="ES.CL"/>
utf-8utf-8<path d="M761.8,108.0L761.0,106.2L759.1,106.7L753.7,106.0L752.8,103.3L750.5,101.9L741.7,106.4L740.6,108.3L738.8,108.7L733.2,108.1L733.2,108.4L729.5,109.8L729.1,112.7L730.9,113.6L732.8,116.6L728.5,126.7L724.7,127.1L715.0,127.0L716.0,129.7L718.9,132.8L720.9,133.7L721.3,138.4L722.6,139.9L723.8,140.1L726.1,136.4L728.1,138.3L727.9,134.7L732.0,136.3L734.3,136.5L735.5,138.9L734.2,140.9L737.2,142.9L737.8,142.2L745.2,143.3L746.6,142.7L747.2,145.3L751.0,147.5L754.2,144.5L756.7,145.9L759.7,143.9L762.8,145.9L764.7,145.3L764.8,142.5L766.0,141.9L771.1,142.3L772.5,138.1L774.4,138.7L781.0,136.7L782.2,136.1L781.9,135.8L775.8,129.7L776.5,123.3L773.0,123.4L772.6,120.4L771.1,119.4L772.1,113.6L772.8,113.2L772.4,112.6L771.8,108.9L767.4,110.7L763.7,108.1L762.7,107.7L761.8,108.0Z " data-id="ES.EX" data-name="Cáceres" id="ES.EX"/>
utf-8utf-8<path d="M774.7,213.6L771.1,212.2L768.2,214.3L768.1,211.5L764.0,215.2L762.6,214.0L760.6,215.3L757.3,215.6L756.0,217.8L750.4,217.3L747.1,215.8L745.2,215.7L744.3,216.5L743.5,224.9L745.3,225.1L748.2,228.4L746.8,229.7L745.4,227.6L747.1,232.0L751.7,238.8L755.4,239.3L758.0,242.2L760.8,242.8L762.8,244.7L767.5,242.7L767.7,239.1L770.0,240.4L772.2,235.5L772.3,235.4L770.6,234.5L769.7,231.0L767.5,228.1L764.7,229.0L763.6,227.6L765.8,226.9L770.3,223.5L770.8,221.4L770.5,217.9L772.4,216.8L775.0,218.2L777.0,216.1L776.8,214.1L775.6,212.6L774.7,213.6Z " data-id="ES.AN" data-name="Cádiz" id="ES.AN"/>
utf-8utf-8<path d="M827.3,17.3L826.8,16.4L826.3,16.3L827.3,17.3Z M795.8,11.9L793.5,15.2L791.0,16.0L788.0,18.5L787.7,18.5L787.5,20.1L789.1,21.8L789.9,22.8L790.0,23.0L790.2,23.7L790.7,23.8L797.3,22.7L799.6,24.7L802.5,25.8L802.9,28.8L805.1,28.9L803.7,29.8L806.0,31.1L806.3,31.5L807.3,31.3L810.6,31.2L813.2,30.0L812.8,28.1L810.8,27.9L812.8,26.6L812.0,25.8L809.7,27.1L809.6,24.6L812.6,22.5L812.7,21.6L817.9,18.8L822.5,20.0L823.3,19.9L823.2,19.6L823.1,16.8L825.3,15.4L830.3,13.2L830.3,13.2L827.3,11.9L822.5,11.6L819.5,8.4L815.7,9.6L814.0,11.1L811.8,9.6L804.1,11.8L796.6,12.5L795.9,11.9L795.8,11.9Z " data-id="ES.CB" data-name="Cantabria" id="ES.CB"/>
utf-8utf-8<path d="M913.6,94.3L906.8,93.3L904.9,92.6L902.0,97.8L902.9,101.8L901.2,103.0L902.6,104.9L897.8,109.5L895.9,109.3L894.0,113.5L894.2,114.4L890.5,115.6L888.4,117.9L889.4,120.4L889.5,120.7L890.0,121.0L893.0,122.0L893.6,124.8L896.2,123.3L897.6,125.4L900.1,123.7L904.9,125.8L907.6,121.7L915.2,111.5L918.9,107.9L923.2,100.8L923.4,100.4L919.9,98.0L918.1,97.4L915.6,94.0L915.0,94.2L914.4,94.0L913.6,94.3Z " data-id="ES.VC" data-name="Castellón" id="ES.VC"/>
utf-8utf-8<path d="M769.8,249.8L769.1,247.4L768.6,247.3L769.8,249.8Z " data-id="ES.CE" data-name="Ceuta" id="ES.CE"/>
utf-8utf-8<path d="M787.2,135.2L786.9,134.7L786.7,132.0L784.4,130.9L783.5,132.1L782.2,136.1L783.9,136.9L785.6,136.1L786.8,135.7L787.2,135.2Z M788.8,134.2L789.1,135.3L787.1,139.1L789.0,142.9L785.7,142.2L783.7,147.5L784.7,150.8L784.1,152.2L781.9,153.3L780.4,156.9L779.8,157.0L779.4,157.2L780.9,158.3L783.7,158.9L784.8,161.2L787.3,161.9L792.7,165.9L794.5,167.8L798.6,169.3L799.0,169.3L799.0,168.1L808.9,168.3L811.1,166.9L816.0,167.6L821.2,167.2L822.7,165.3L830.3,165.0L832.3,166.0L835.2,165.7L838.2,163.7L838.5,163.4L838.7,163.0L841.4,157.9L840.5,155.6L839.2,155.2L837.5,151.5L835.4,150.3L837.3,146.8L836.4,144.2L839.6,140.0L839.1,138.4L837.9,135.9L836.8,137.2L835.8,136.1L834.9,134.9L834.3,133.6L833.0,134.4L830.7,134.2L828.8,132.8L823.6,135.7L822.2,135.7L818.0,139.0L817.3,138.7L813.4,140.0L812.3,139.2L807.4,139.0L807.3,137.3L804.7,136.9L803.6,137.6L803.6,134.0L804.6,134.2L803.5,130.6L802.6,130.2L801.7,132.7L800.4,133.3L795.7,132.4L793.5,131.1L790.7,134.1L788.8,134.2Z " data-id="ES.CM" data-name="Ciudad Real" id="ES.CM"/>
utf-8utf-8<path d="M798.6,169.3L794.5,167.8L792.7,165.9L787.3,161.9L784.8,161.2L783.7,158.9L780.9,158.3L779.4,157.2L778.7,157.3L770.3,162.4L769.4,164.0L765.4,166.9L765.5,169.9L766.6,173.4L766.1,175.3L764.9,176.2L764.9,176.8L767.1,179.1L767.5,181.1L769.1,182.8L769.1,184.2L771.7,187.8L771.7,190.2L769.0,191.0L769.3,192.4L772.5,192.6L778.4,189.9L780.2,190.5L781.1,195.9L784.2,201.2L785.7,202.1L787.1,201.1L788.4,203.8L788.5,204.5L789.6,204.5L790.0,205.6L794.0,203.8L795.6,203.8L795.9,205.8L797.1,206.2L797.2,206.7L798.9,205.3L800.2,201.3L801.1,201.5L803.7,199.7L805.6,199.7L804.7,198.0L800.2,192.5L801.0,190.0L798.5,186.3L799.1,181.7L798.5,180.4L801.6,176.1L801.7,174.7L799.8,169.6L799.0,169.3L798.6,169.3Z " data-id="ES.AN" data-name="Córdoba" id="ES.AN"/>
utf-8utf-8<path d="M862.2,103.4L861.4,100.2L859.7,98.1L859.0,98.5L856.4,96.8L851.6,96.7L847.9,98.7L848.6,99.7L844.8,102.2L845.4,103.7L842.5,102.7L840.0,104.4L837.8,104.1L837.5,110.3L832.4,112.0L831.1,111.6L830.9,111.9L830.7,111.9L830.3,114.6L829.8,114.7L828.5,114.8L828.3,115.4L830.2,119.0L832.6,125.6L834.9,128.1L834.5,129.4L834.3,133.6L834.9,134.9L835.8,136.1L836.8,137.2L837.9,135.9L839.1,138.4L841.2,138.3L845.1,137.7L848.6,141.1L850.8,141.3L853.9,139.6L857.0,140.0L855.9,137.1L858.5,139.2L861.2,138.8L864.2,139.6L865.0,138.3L871.2,135.1L871.2,135.1L871.3,130.6L875.0,126.8L876.4,127.2L878.5,122.8L878.9,118.8L880.1,118.0L880.4,117.7L880.0,116.5L879.5,116.6L877.9,117.0L874.4,116.2L872.6,112.8L872.7,112.2L872.8,111.9L866.2,107.6L864.6,105.0L863.5,104.3L863.5,104.3L862.2,103.4Z " data-id="ES.CM" data-name="Cuenca" id="ES.CM"/>
utf-8utf-8<path d="M960.4,41.3L960.2,40.3L959.4,40.6L960.4,41.3Z M953.4,39.7L954.2,41.5L955.9,42.0L956.6,44.8L956.8,45.5L958.6,45.1L962.0,46.2L962.2,49.2L964.0,51.1L968.0,50.4L973.7,54.1L970.7,58.8L969.5,58.3L974.9,63.5L977.2,63.0L980.5,63.4L980.8,65.7L981.2,65.0L989.4,59.5L990.2,59.6L992.2,55.7L989.4,50.5L989.3,48.2L990.1,47.0L991.6,47.5L993.5,46.8L994.3,44.9L991.0,44.1L990.8,41.6L984.5,40.4L973.1,44.5L970.3,42.9L967.0,41.8L961.0,44.2L957.4,41.2L953.9,39.9L953.4,39.7Z " data-id="ES.CT" data-name="Gerona" id="ES.CT"/>
utf-8utf-8<path d="M848.8,179.8L848.6,179.7L845.8,178.9L843.7,177.9L842.3,178.5L842.4,180.3L839.7,181.4L837.5,183.3L834.4,191.3L829.4,193.5L825.2,192.3L823.6,194.1L818.6,192.9L815.4,195.6L811.1,197.7L809.8,200.3L806.9,200.5L805.6,199.7L803.7,199.7L801.1,201.5L800.2,201.3L798.9,205.3L797.2,206.7L798.0,208.8L798.7,211.9L801.6,214.4L808.7,217.4L809.9,217.4L811.4,219.1L811.2,221.2L812.4,221.6L819.0,222.5L822.9,220.9L827.4,220.9L828.1,220.9L827.8,219.5L830.8,217.7L829.8,215.5L831.7,213.6L833.1,209.1L834.7,206.9L835.3,204.3L840.5,205.9L840.9,200.8L845.0,196.9L848.5,195.9L848.0,193.0L849.6,192.7L849.5,190.2L850.5,188.1L850.8,184.3L852.5,183.2L852.5,183.2L850.6,181.2L850.3,180.6L850.0,180.3L849.1,179.7L848.8,179.8Z " data-id="ES.AN" data-name="Granada" id="ES.AN"/>
utf-8utf-8<path d="M857.4,81.5L856.4,82.8L855.0,82.1L848.2,83.7L846.9,83.2L840.2,77.2L836.9,77.2L836.3,76.0L831.1,77.0L828.1,76.4L827.6,76.6L823.2,77.8L822.4,79.2L819.6,80.7L819.2,80.7L819.3,81.2L821.9,83.3L822.5,86.0L820.2,92.1L821.2,92.5L824.6,97.3L825.3,100.0L827.8,101.9L828.8,106.5L828.2,107.1L830.6,110.7L830.9,111.9L831.1,111.6L832.4,112.0L837.5,110.3L837.8,104.1L840.0,104.4L842.5,102.7L845.4,103.7L844.8,102.2L848.6,99.7L847.9,98.7L851.6,96.7L856.4,96.8L859.0,98.5L859.7,98.1L861.4,100.2L862.2,103.4L863.5,104.3L863.8,103.9L867.0,98.4L869.0,99.1L870.1,98.3L868.7,87.9L868.4,87.3L867.5,86.6L865.5,84.9L864.7,83.7L859.5,80.4L857.4,81.0L857.4,81.5Z " data-id="ES.CM" data-name="Guadalajara" id="ES.CM"/>
utf-8utf-8<path d="M849.1,14.2L848.8,16.1L846.9,17.4L846.3,21.4L845.4,21.5L845.8,22.8L844.0,24.8L845.3,25.3L850.3,25.8L852.1,27.3L852.8,27.3L853.2,26.6L858.2,24.4L858.9,22.2L861.2,20.7L861.6,17.7L865.7,15.2L865.6,15.1L864.1,12.2L856.1,15.5L850.1,14.6L849.1,14.2Z " data-id="ES.PV" data-name="Gipuzkoa" id="ES.PV"/>
utf-8utf-8<path d="M748.7,182.1L742.5,178.7L741.0,180.0L739.0,179.6L738.3,178.0L732.9,176.7L733.3,175.0L729.4,174.1L729.5,174.2L727.3,179.8L724.5,179.5L720.9,182.1L719.1,186.6L716.6,188.5L715.3,197.4L716.5,206.5L725.1,206.0L728.8,207.2L728.3,205.2L731.2,203.2L729.6,206.6L740.2,214.0L743.0,218.9L744.2,215.9L744.3,215.8L743.3,214.8L744.0,213.2L743.4,211.2L744.4,207.0L744.4,202.9L743.6,202.1L744.4,199.4L743.4,193.2L739.8,192.4L741.5,189.4L750.0,185.4L749.5,183.4L749.1,182.5L748.7,182.1Z " data-id="ES.AN" data-name="Huelva" id="ES.AN"/>
utf-8utf-8<path d="M891.0,26.7L888.5,28.8L887.9,31.3L887.2,31.7L887.0,32.1L886.8,32.9L887.1,39.7L888.6,43.5L886.5,46.8L891.3,45.4L890.7,46.9L890.7,52.6L888.1,53.0L887.9,54.0L890.1,56.2L894.5,58.3L896.5,59.8L897.1,62.4L901.9,66.4L904.6,67.3L906.0,69.4L908.1,74.2L912.6,74.8L916.1,72.4L918.6,73.1L918.8,72.3L921.2,68.8L919.2,67.2L918.3,64.8L925.2,58.7L924.8,56.2L926.3,55.1L928.6,47.3L929.4,36.2L926.8,33.5L926.6,33.8L919.8,33.9L918.9,32.9L916.9,34.4L913.3,32.9L908.9,33.9L907.9,33.5L905.8,30.5L903.7,30.2L896.3,30.8L891.1,27.0L891.0,26.7Z " data-id="ES.AR" data-name="Huesca" id="ES.AR"/>
utf-8utf-8<path d="M844.0,177.5L846.8,172.2L845.8,170.9L845.3,167.7L843.2,166.8L839.4,164.0L838.5,163.4L838.2,163.7L835.2,165.7L832.3,166.0L830.3,165.0L822.7,165.3L821.2,167.2L816.0,167.6L811.1,166.9L808.9,168.3L799.0,168.1L799.0,169.3L799.8,169.6L801.7,174.7L801.6,176.1L798.5,180.4L799.1,181.7L798.5,186.3L801.0,190.0L800.2,192.5L804.7,198.0L805.6,199.7L806.9,200.5L809.8,200.3L811.1,197.7L815.4,195.6L818.6,192.9L823.6,194.1L825.2,192.3L829.4,193.5L834.4,191.3L837.5,183.3L839.7,181.4L842.4,180.3L842.3,178.5L843.7,177.9L844.0,177.5Z " data-id="ES.AN" data-name="Jaén" id="ES.AN"/>
utf-8utf-8<path d="M688.4,33.8L697.1,30.7L698.1,31.0L700.4,29.3L706.3,29.2L707.1,28.9L707.8,27.8L709.4,26.2L709.3,21.4L708.5,18.4L710.5,13.8L710.7,11.8L711.9,12.0L714.3,8.3L714.0,7.6L715.8,1.9L715.8,1.5L712.9,2.1L711.6,3.8L710.4,3.8L710.5,0.8L706.1,4.7L702.1,6.7L699.4,9.8L702.9,9.4L702.5,14.2L701.0,12.4L699.1,12.2L698.7,13.6L696.5,12.8L693.5,14.7L689.6,15.2L682.6,15.6L683.9,16.8L676.6,19.5L678.5,20.1L676.6,20.7L675.7,22.1L675.2,27.3L677.2,25.9L679.1,31.6L684.6,29.9L681.4,32.4L679.6,36.6L683.0,36.3L685.6,33.9L687.4,35.1L688.2,33.8L688.4,33.8Z " data-id="ES.GA" data-name="La Coruña" id="ES.GA"/>
utf-8utf-8<path d="M848.3,39.5L845.8,38.8L841.7,38.4L837.9,35.4L837.9,35.1L836.1,35.7L831.6,37.3L831.8,43.8L831.1,44.7L831.0,48.2L832.9,52.1L835.6,53.1L835.8,54.1L836.8,54.4L839.0,51.7L840.3,51.2L840.3,52.9L841.9,54.8L844.5,54.5L848.6,50.6L851.7,50.7L854.2,51.7L856.3,56.2L859.8,57.4L861.6,56.7L862.6,56.2L862.8,55.5L862.9,55.4L862.7,54.8L861.8,54.1L865.3,50.4L867.0,50.5L862.6,46.1L859.7,42.8L856.4,41.2L853.9,41.2L852.0,39.8L849.3,39.7L848.8,39.6L848.3,39.5Z " data-id="ES.LO" data-name="La Rioja" id="ES.LO"/>
utf-8utf-8<path d="M494.2,493.9L486.4,493.0L485.7,496.5L483.1,498.8L484.2,503.7L487.4,506.1L492.8,504.9L494.9,503.0L494.2,493.9Z M525.8,494.2L529.2,492.0L533.4,491.1L537.4,475.7L536.7,474.8L532.8,476.1L532.7,477.2L525.1,492.8L518.9,496.2L522.3,496.7L525.8,494.2Z M548.0,462.1L544.1,462.5L539.3,464.7L536.6,470.1L538.2,471.2L542.0,469.2L546.4,467.4L547.7,465.7L548.0,462.1Z M547.2,459.1L547.6,458.3L547.4,457.7L547.2,459.1Z " data-id="ES.CN" data-name="Las Palmas" id="ES.CN"/>
utf-8utf-8<path d="M787.0,17.4L785.8,17.0L781.8,18.8L780.4,20.9L771.2,22.8L770.9,23.4L765.1,22.9L761.8,25.1L758.8,23.1L755.8,22.3L754.9,23.4L752.0,23.8L748.7,22.7L745.7,24.8L745.2,26.4L738.5,27.5L737.7,27.0L736.9,26.8L736.6,27.1L735.9,30.1L733.9,32.0L731.9,32.8L731.8,34.8L730.5,38.8L730.3,39.4L731.4,39.5L736.9,40.6L736.1,42.3L738.2,43.7L737.7,46.8L737.4,47.1L739.3,48.2L741.6,48.5L749.6,48.6L752.0,50.3L756.1,50.0L763.7,51.4L766.0,50.7L766.7,52.3L768.5,52.9L768.8,51.8L769.4,51.9L771.8,53.9L773.0,53.6L772.7,52.3L772.8,48.9L776.7,46.7L780.4,45.4L781.8,45.7L782.7,46.0L783.9,45.8L783.5,43.4L785.7,35.8L785.9,33.0L784.9,32.0L785.6,28.9L787.9,26.5L789.3,24.1L790.2,23.7L790.0,23.0L789.9,22.8L789.1,21.8L787.5,20.1L787.7,18.5L787.0,17.4Z " data-id="ES.CL" data-name="León" id="ES.CL"/>
utf-8utf-8<path d="M926.8,33.5L929.4,36.2L928.6,47.3L926.3,55.1L924.8,56.2L925.2,58.7L918.3,64.8L919.2,67.2L921.2,68.8L918.8,72.3L918.6,73.1L918.2,73.6L919.5,75.2L919.0,77.8L919.1,78.5L919.8,77.1L924.5,75.8L925.8,76.4L931.5,74.6L934.4,74.7L936.6,72.5L939.5,70.8L940.8,68.0L945.0,68.2L945.5,67.9L945.9,67.4L946.6,65.8L945.8,63.9L946.2,61.1L949.7,62.0L951.5,60.1L953.4,50.8L954.1,49.7L952.7,47.2L953.6,46.0L956.8,45.5L956.6,44.8L955.9,42.0L954.2,41.5L953.4,39.7L953.4,39.6L946.4,40.9L946.7,38.9L943.4,33.0L939.1,33.2L937.5,31.2L930.5,29.4L926.6,29.2L926.2,31.1L926.8,33.4L926.8,33.5Z " data-id="ES.CT" data-name="Lérida" id="ES.CT"/>
utf-8utf-8<path d="M731.8,9.1L725.5,6.0L724.0,3.5L720.7,2.0L717.9,2.7L717.2,1.2L715.9,2.0L715.8,1.9L714.0,7.6L714.3,8.3L711.9,12.0L710.7,11.8L710.5,13.8L708.5,18.4L709.3,21.4L709.4,26.2L707.8,27.8L707.1,28.9L708.0,29.0L707.6,30.9L708.7,32.2L709.6,35.4L708.5,37.1L709.3,37.8L709.3,39.3L713.9,41.0L716.3,42.5L718.8,42.7L725.5,42.4L726.8,44.9L729.4,40.8L730.3,39.4L730.5,38.8L731.8,34.8L731.9,32.8L733.9,32.0L735.9,30.1L736.6,27.1L736.9,26.8L736.8,25.7L733.0,24.0L734.2,21.8L737.0,20.0L736.2,18.9L731.3,16.4L731.1,15.1L728.7,12.1L731.9,9.5L731.8,9.1Z " data-id="ES.GA" data-name="Lugo" id="ES.GA"/>
utf-8utf-8<path d="M800.2,95.2L799.6,95.1L799.1,95.5L799.0,96.3L800.7,96.2L800.2,95.2Z M819.2,80.7L818.0,80.9L810.2,86.8L808.6,89.0L807.6,92.4L805.8,92.4L803.9,94.4L803.2,95.4L803.0,96.0L800.3,97.4L799.0,100.4L798.5,104.1L796.0,105.2L793.5,107.6L792.7,109.7L792.3,110.2L792.9,110.6L796.1,108.9L798.1,108.6L799.4,110.0L805.4,108.7L812.9,112.4L815.4,112.7L816.7,115.0L812.6,118.3L810.3,119.4L812.1,120.1L819.8,115.3L828.5,114.5L828.5,114.8L829.8,114.7L830.3,114.6L830.7,111.9L830.9,111.9L830.6,110.7L828.2,107.1L828.8,106.5L827.8,101.9L825.3,100.0L824.6,97.3L821.2,92.5L820.2,92.1L822.5,86.0L821.9,83.3L819.3,81.2L819.2,80.7Z " data-id="ES.MD" data-name="Madrid" id="ES.MD"/>
utf-8utf-8<path d="M797.1,206.2L795.9,205.8L795.6,203.8L794.0,203.8L790.0,205.6L789.6,204.5L788.5,204.5L786.8,204.3L784.8,207.6L781.6,209.1L775.6,212.6L776.8,214.1L777.0,216.1L775.0,218.2L772.4,216.8L770.5,217.9L770.8,221.4L770.3,223.5L765.8,226.9L763.6,227.6L764.7,229.0L767.5,228.1L769.7,231.0L770.6,234.5L772.3,235.4L772.6,234.9L773.8,232.1L777.4,230.4L787.4,228.8L792.5,224.4L794.4,221.7L806.4,221.5L810.5,221.0L811.2,221.2L811.4,219.1L809.9,217.4L808.7,217.4L801.6,214.4L798.7,211.9L798.0,208.8L797.2,206.7L797.1,206.2Z " data-id="ES.AN" data-name="Málaga" id="ES.AN"/>
utf-8utf-8<path d="M849.1,179.7L850.0,180.3L850.3,180.6L850.6,181.2L852.5,183.2L852.5,183.2L853.4,183.8L858.5,184.8L857.8,187.3L857.7,191.3L862.0,198.0L864.5,198.5L867.1,200.4L867.7,200.1L875.4,194.6L881.1,195.6L882.1,193.9L888.1,194.1L891.7,192.4L888.8,191.2L887.6,188.8L890.1,185.5L890.1,185.5L888.1,184.8L883.1,177.4L884.8,171.8L882.7,169.5L881.8,167.2L883.5,163.8L883.9,161.6L883.4,159.5L882.0,158.5L879.5,156.4L874.4,158.0L872.8,159.5L871.4,168.3L867.0,170.4L864.1,168.5L862.0,170.0L858.0,171.5L856.5,171.2L849.5,178.5L849.1,179.7Z " data-id="ES.MU" data-name="Murcia" id="ES.MU"/>
utf-8utf-8<path d="M880.0,42.5L879.6,41.8L879.5,42.2L880.0,42.5Z M882.8,41.5L881.4,40.3L881.1,41.2L882.8,41.5Z M865.7,15.2L861.6,17.7L861.2,20.7L858.9,22.2L858.2,24.4L853.2,26.6L852.8,27.3L853.2,28.6L852.1,31.8L851.0,32.8L850.8,35.1L848.8,34.6L846.6,36.2L848.4,36.5L848.9,39.1L848.8,39.6L849.3,39.7L852.0,39.8L853.9,41.2L856.4,41.2L859.7,42.8L862.6,46.1L867.0,50.5L865.3,50.4L861.8,54.1L862.7,54.8L863.0,54.8L868.2,56.2L869.8,57.4L873.8,57.6L876.4,52.9L874.4,50.9L874.4,46.3L875.6,43.2L877.6,39.9L877.3,39.0L880.7,35.4L883.4,34.9L886.5,32.3L887.0,32.1L887.2,31.7L887.9,31.3L888.5,28.8L891.0,26.7L890.7,25.9L885.1,25.5L875.8,21.4L875.3,23.2L872.3,21.7L874.2,19.1L872.8,16.3L865.7,15.3L865.7,15.2Z " data-id="ES.NA" data-name="Navarra" id="ES.NA"/>
utf-8utf-8<path d="M729.4,40.8L726.8,44.9L725.5,42.4L718.8,42.7L716.3,42.5L713.9,41.0L709.3,39.3L709.3,37.8L708.5,37.1L707.8,37.4L703.0,38.0L702.4,37.3L699.0,39.8L697.9,41.6L699.4,46.3L702.2,47.3L700.6,50.1L700.9,50.4L700.4,57.2L701.3,60.7L703.5,60.8L708.4,57.5L708.6,59.2L713.1,57.9L716.0,58.7L715.6,60.0L718.1,59.1L720.0,60.3L725.1,59.0L727.5,55.3L731.8,55.9L732.0,56.0L732.5,54.0L731.0,52.8L733.2,50.0L737.4,47.1L737.4,47.1L737.7,46.8L738.2,43.7L736.1,42.3L736.9,40.6L731.4,39.5L730.3,39.4L729.4,40.8Z " data-id="ES.GA" data-name="Orense" id="ES.GA"/>
utf-8utf-8<path d="M790.2,23.7L789.3,24.1L787.9,26.5L785.6,28.9L784.9,32.0L785.9,33.0L785.7,35.8L783.5,43.4L783.9,45.8L782.7,46.0L782.2,47.8L782.0,50.1L784.5,50.2L782.4,56.8L782.8,57.5L785.8,56.9L787.8,60.4L790.3,58.2L795.3,61.6L799.9,61.9L801.8,60.9L805.4,61.8L806.9,62.0L806.9,61.3L806.6,58.9L808.5,57.1L810.5,56.4L810.2,55.1L807.3,55.6L805.0,50.9L802.9,50.7L803.3,49.3L802.2,47.8L801.2,43.1L799.9,41.4L802.1,40.9L800.9,36.3L801.7,33.2L806.0,32.0L806.3,31.5L806.0,31.1L803.7,29.8L805.1,28.9L802.9,28.8L802.5,25.8L799.6,24.7L797.3,22.7L790.7,23.8L790.2,23.7Z " data-id="ES.CL" data-name="Palencia" id="ES.CL"/>
utf-8utf-8<path d="M706.3,29.2L700.4,29.3L698.1,31.0L697.1,30.7L688.4,33.8L688.1,34.4L685.8,37.8L686.1,39.4L683.8,40.7L686.0,42.6L689.3,41.3L687.1,43.9L685.5,44.8L684.4,47.0L690.7,45.3L683.5,51.2L683.5,58.1L690.2,53.3L697.4,51.7L699.9,50.6L700.6,50.1L702.2,47.3L699.4,46.3L697.9,41.6L699.0,39.8L702.4,37.3L703.0,38.0L707.8,37.4L708.5,37.1L709.6,35.4L708.7,32.2L707.6,30.9L708.0,29.0L707.1,28.9L706.3,29.2Z " data-id="ES.GA" data-name="Pontevedra" id="ES.GA"/>
utf-8utf-8<path d="M774.4,81.6L771.6,79.9L769.3,80.2L763.8,78.6L761.3,79.0L759.3,78.4L753.1,79.6L748.2,77.0L744.2,76.3L743.8,76.6L740.4,77.3L734.6,84.1L733.1,83.9L732.1,85.2L734.7,90.6L734.9,94.7L734.1,98.7L733.9,104.1L733.2,107.9L733.2,108.1L738.8,108.7L740.6,108.3L741.7,106.4L750.5,101.9L752.8,103.3L753.7,106.0L759.1,106.7L761.0,106.2L761.8,108.0L762.7,107.7L763.9,106.0L763.7,104.2L765.7,102.2L767.4,103.5L770.3,99.7L768.4,99.7L772.3,95.8L775.4,93.8L777.6,89.8L778.9,88.3L779.4,85.6L778.2,82.6L778.7,81.6L777.5,80.6L775.7,79.7L775.3,79.6L774.6,80.0L774.4,81.6Z " data-id="ES.CL" data-name="Salamanca" id="ES.CL"/>
utf-8utf-8<path d="M427.1,504.7L423.9,504.7L421.3,505.8L420.5,507.8L422.4,508.1L424.0,509.7L427.1,504.7Z M445.7,497.5L448.7,495.1L448.3,493.7L444.6,491.5L443.2,491.8L442.1,495.2L443.0,496.6L445.7,497.5Z M475.8,480.2L469.7,481.1L465.7,484.5L463.0,485.7L457.3,486.7L456.2,486.0L454.2,487.7L459.2,497.6L463.6,497.6L466.9,493.0L469.0,488.4L468.8,486.9L472.6,482.9L475.8,480.2Z M429.1,471.8L426.2,472.6L426.2,477.1L429.8,483.3L432.0,478.7L432.0,472.5L429.1,471.8Z " data-id="ES.CN" data-name="Santa Cruz de Tenerife" id="ES.CN"/>
utf-8utf-8<path d="M818.7,68.2L813.6,71.5L813.2,70.2L810.6,68.8L808.3,67.7L808.0,69.0L807.4,69.8L799.4,71.7L795.3,73.0L795.6,76.1L794.0,75.8L790.9,78.8L790.9,79.5L789.6,80.9L789.2,82.9L793.0,87.3L794.7,90.9L796.5,97.1L798.5,96.7L799.0,96.3L799.1,95.5L799.6,95.1L800.2,95.2L800.6,95.0L801.0,95.0L802.6,95.1L803.2,95.4L803.9,94.4L805.8,92.4L807.6,92.4L808.6,89.0L810.2,86.8L818.0,80.9L819.2,80.7L819.6,80.7L822.4,79.2L823.2,77.8L827.6,76.6L828.1,76.4L824.7,74.0L822.5,70.6L822.5,69.9L819.6,68.5L819.5,67.8L818.7,68.2Z " data-id="ES.CL" data-name="Segovia" id="ES.CL"/>
utf-8utf-8<path d="M763.8,176.1L761.5,174.7L756.4,176.6L755.2,180.3L749.5,182.1L749.1,182.5L749.5,183.4L750.0,185.4L741.5,189.4L739.8,192.4L743.4,193.2L744.4,199.4L743.6,202.1L744.4,202.9L744.4,207.0L743.4,211.2L744.0,213.2L743.3,214.8L744.3,215.8L744.7,215.5L748.1,214.9L747.3,215.9L747.1,215.8L750.4,217.3L756.0,217.8L757.3,215.6L760.6,215.3L762.6,214.0L764.0,215.2L768.1,211.5L768.2,214.3L771.1,212.2L774.7,213.6L775.6,212.6L781.6,209.1L784.8,207.6L786.8,204.3L788.5,204.5L788.4,203.8L787.1,201.1L785.7,202.1L784.2,201.2L781.1,195.9L780.2,190.5L778.4,189.9L772.5,192.6L769.3,192.4L769.0,191.0L771.7,190.2L771.7,187.8L769.1,184.2L769.1,182.8L767.5,181.1L767.1,179.1L764.9,176.8L764.9,176.2L763.8,176.1Z " data-id="ES.AN" data-name="Sevilla" id="ES.AN"/>
utf-8utf-8<path d="M861.6,56.7L859.8,57.4L856.3,56.2L854.2,51.7L851.7,50.7L848.6,50.6L844.5,54.5L841.9,54.8L840.3,52.9L840.3,51.2L839.0,51.7L836.8,54.4L835.8,54.1L835.2,54.3L829.0,61.2L826.5,59.0L826.3,61.9L823.3,64.4L821.6,67.5L819.5,67.3L819.5,67.8L819.6,68.5L822.5,69.9L822.5,70.6L824.7,74.0L828.1,76.4L831.1,77.0L836.3,76.0L836.9,77.2L840.2,77.2L846.9,83.2L848.2,83.7L855.0,82.1L856.4,82.8L857.4,81.5L857.4,81.0L857.2,80.8L854.9,79.7L855.5,74.0L856.3,72.0L858.4,73.7L859.5,70.5L859.2,67.3L860.8,67.1L864.3,63.9L862.8,61.3L862.7,57.7L862.6,56.2L861.6,56.7Z " data-id="ES.CL" data-name="Soria" id="ES.CL"/>
utf-8utf-8<path d="M945.5,67.9L945.0,68.2L940.8,68.0L939.5,70.8L936.6,72.5L934.4,74.7L931.5,74.6L925.8,76.4L924.5,75.8L919.8,77.1L919.1,78.5L919.1,78.5L917.0,81.0L916.5,81.1L915.4,83.1L915.5,83.5L915.8,84.3L917.2,86.9L916.7,87.9L914.2,93.7L914.4,94.0L915.0,94.2L915.6,94.0L918.1,97.4L919.9,98.0L923.4,100.4L924.0,99.0L925.3,97.7L927.8,98.4L925.1,98.7L925.7,99.6L928.1,98.6L932.3,94.8L928.4,92.7L932.4,87.1L937.0,83.7L940.0,83.9L941.1,82.4L949.3,79.9L951.5,79.7L950.3,78.0L950.5,76.4L949.2,73.8L947.9,73.1L945.6,69.6L946.1,67.9L945.5,67.9Z " data-id="ES.CT" data-name="Tarragona" id="ES.CT"/>
utf-8utf-8<path d="M914.2,83.7L911.1,84.1L909.0,81.5L899.5,77.3L897.3,74.7L895.9,74.8L896.3,78.5L894.5,75.8L894.3,79.7L892.2,82.2L891.0,80.8L888.8,82.8L887.3,81.6L885.5,83.2L882.1,80.8L880.0,81.9L874.3,83.5L872.4,87.2L870.1,87.4L868.4,87.3L868.7,87.9L870.1,98.3L869.0,99.1L867.0,98.4L863.8,103.9L863.5,104.3L863.5,104.3L864.6,105.0L866.2,107.6L872.8,111.9L872.7,112.2L874.0,112.5L875.4,112.4L876.5,110.5L878.2,113.0L881.8,114.5L880.6,116.4L880.0,116.5L880.4,117.7L880.8,118.0L886.2,118.3L886.7,121.1L888.1,121.4L889.5,120.7L889.4,120.4L888.4,117.9L890.5,115.6L894.2,114.4L894.0,113.5L895.9,109.3L897.8,109.5L902.6,104.9L901.2,103.0L902.9,101.8L902.0,97.8L904.9,92.6L906.8,93.3L913.6,94.3L914.4,94.0L914.2,93.7L916.7,87.9L917.2,86.9L915.8,84.3L915.5,83.5L914.2,83.7Z " data-id="ES.AR" data-name="Teruel" id="ES.AR"/>
utf-8utf-8<path d="M828.5,114.5L819.8,115.3L812.1,120.1L810.3,119.4L812.6,118.3L816.7,115.0L815.4,112.7L812.9,112.4L805.4,108.7L799.4,110.0L798.1,108.6L796.1,108.9L792.9,110.6L792.3,110.2L791.6,110.5L789.4,109.8L789.1,108.2L786.3,108.7L786.1,109.7L783.1,112.7L781.6,113.3L780.9,112.1L777.0,114.1L775.3,113.5L772.8,113.2L772.1,113.6L771.1,119.4L772.6,120.4L773.0,123.4L776.5,123.3L775.8,129.7L781.9,135.8L782.2,136.1L783.5,132.1L784.4,130.9L786.7,132.0L786.9,134.7L787.2,135.2L788.5,134.6L788.8,134.2L790.7,134.1L793.5,131.1L795.7,132.4L800.4,133.3L801.7,132.7L802.6,130.2L803.5,130.6L804.6,134.2L803.6,134.0L803.6,137.6L804.7,136.9L807.3,137.3L807.4,139.0L812.3,139.2L813.4,140.0L817.3,138.7L818.0,139.0L822.2,135.7L823.6,135.7L828.8,132.8L830.7,134.2L833.0,134.4L834.3,133.6L834.5,129.4L834.9,128.1L832.6,125.6L830.2,119.0L828.3,115.4L828.5,114.8L828.5,114.5Z " data-id="ES.CM" data-name="Toledo" id="ES.CM"/>
utf-8utf-8<path d="M880.4,117.7L880.1,118.0L878.9,118.8L878.5,122.8L876.4,127.2L875.0,126.8L871.3,130.6L871.2,135.1L871.2,135.1L871.5,135.2L873.6,136.7L877.3,146.2L880.1,150.2L881.6,150.7L884.5,150.1L885.9,153.1L886.1,155.2L885.8,155.4L886.2,155.7L888.4,156.6L891.0,156.4L893.1,157.5L896.8,156.7L894.5,155.1L899.1,154.3L901.9,152.3L904.0,153.2L909.1,152.3L908.2,151.3L904.5,146.0L901.6,136.2L901.6,132.1L904.8,126.2L904.9,125.8L900.1,123.7L897.6,125.4L896.2,123.3L893.6,124.8L893.0,122.0L890.0,121.0L889.5,120.7L888.1,121.4L886.7,121.1L886.2,118.3L880.8,118.0L880.4,117.7Z M872.7,112.2L872.6,112.8L874.4,116.2L877.9,117.0L879.5,116.6L880.0,116.5L880.6,116.4L881.8,114.5L878.2,113.0L876.5,110.5L875.4,112.4L874.0,112.5L872.7,112.2Z " data-id="ES.VC" data-name="Valencia" id="ES.VC"/>
utf-8utf-8<path d="M769.7,53.1L770.5,54.7L770.2,55.3L771.4,55.9L771.8,53.9L769.4,51.9L769.7,53.1Z M773.0,53.6L775.4,55.5L774.6,58.8L775.3,60.6L772.4,62.2L776.4,69.4L774.0,70.5L773.7,74.6L774.1,78.9L773.7,80.2L774.6,80.0L775.3,79.6L775.7,79.7L777.5,80.6L778.7,81.6L779.2,81.3L782.6,80.9L784.9,82.4L787.2,81.5L789.6,80.9L790.9,79.5L790.9,78.8L794.0,75.8L795.6,76.1L795.3,73.0L799.4,71.7L807.4,69.8L808.0,69.0L808.3,67.7L808.0,66.9L807.0,66.2L806.5,62.8L806.9,62.0L805.4,61.8L801.8,60.9L799.9,61.9L795.3,61.6L790.3,58.2L787.8,60.4L785.8,56.9L782.8,57.5L782.4,56.8L784.5,50.2L782.0,50.1L782.2,47.8L782.7,46.0L781.8,45.7L780.4,45.4L776.7,46.7L772.8,48.9L772.7,52.3L773.0,53.6Z " data-id="ES.CL" data-name="Valladolid" id="ES.CL"/>
utf-8utf-8<path d="M847.6,13.6L844.0,12.0L842.3,11.8L840.3,10.5L837.8,10.8L833.8,12.5L833.6,13.5L830.8,13.4L830.3,13.2L825.3,15.4L823.1,16.8L823.2,19.6L823.3,19.9L824.8,19.4L827.0,18.2L830.4,18.9L830.4,19.2L831.0,19.7L832.9,19.5L834.0,18.0L835.3,18.9L835.3,21.7L836.6,22.8L843.2,23.5L842.7,21.9L844.1,21.7L845.4,21.5L846.3,21.4L846.9,17.4L848.8,16.1L849.1,14.2L847.6,13.6Z M827.3,17.3L826.3,16.3L826.8,16.4L827.3,17.3Z " data-id="ES.PV" data-name="Bizkaia" id="ES.PV"/>
utf-8utf-8<path d="M768.8,51.8L768.5,52.9L766.7,52.3L766.0,50.7L763.7,51.4L756.1,50.0L752.0,50.3L749.6,48.6L741.6,48.5L739.3,48.2L737.4,47.1L737.4,47.1L733.2,50.0L731.0,52.8L732.5,54.0L732.0,56.0L732.3,56.1L736.8,55.5L737.7,56.8L741.2,56.7L742.6,62.0L742.1,62.8L745.4,64.8L747.5,65.2L751.5,68.1L744.7,76.0L744.2,76.3L748.2,77.0L753.1,79.6L759.3,78.4L761.3,79.0L763.8,78.6L769.3,80.2L771.6,79.9L774.4,81.6L774.6,80.0L773.7,80.2L774.1,78.9L773.7,74.6L774.0,70.5L776.4,69.4L772.4,62.2L775.3,60.6L774.6,58.8L775.4,55.5L773.0,53.6L771.8,53.9L771.4,55.9L770.2,55.3L770.5,54.7L769.7,53.1L769.4,51.9L768.8,51.8Z " data-id="ES.CL" data-name="Zamora" id="ES.CL"/>
utf-8utf-8<path d="M916.1,72.4L912.6,74.8L908.1,74.2L906.0,69.4L904.6,67.3L901.9,66.4L897.1,62.4L896.5,59.8L894.5,58.3L890.1,56.2L887.9,54.0L888.1,53.0L890.7,52.6L890.7,46.9L891.3,45.4L886.5,46.8L888.6,43.5L887.1,39.7L886.8,32.9L887.0,32.1L886.5,32.3L883.4,34.9L880.7,35.4L877.3,39.0L877.6,39.9L875.6,43.2L874.4,46.3L874.4,50.9L876.4,52.9L873.8,57.6L869.8,57.4L868.2,56.2L863.0,54.8L862.7,54.8L862.9,55.4L862.8,55.5L862.6,56.2L862.7,57.7L862.8,61.3L864.3,63.9L860.8,67.1L859.2,67.3L859.5,70.5L858.4,73.7L856.3,72.0L855.5,74.0L854.9,79.7L857.2,80.8L857.4,81.0L859.5,80.4L864.7,83.7L865.5,84.9L867.5,86.6L868.4,87.3L870.1,87.4L872.4,87.2L874.3,83.5L880.0,81.9L882.1,80.8L885.5,83.2L887.3,81.6L888.8,82.8L891.0,80.8L892.2,82.2L894.3,79.7L894.5,75.8L896.3,78.5L895.9,74.8L897.3,74.7L899.5,77.3L909.0,81.5L911.1,84.1L914.2,83.7L915.5,83.5L915.4,83.1L916.5,81.1L917.0,81.0L919.1,78.5L919.1,78.5L919.0,77.8L919.5,75.2L918.2,73.6L918.6,73.1L916.1,72.4Z M880.0,42.5L879.5,42.2L879.6,41.8L880.0,42.5Z M882.8,41.5L881.1,41.2L881.4,40.3L882.8,41.5Z " data-id="ES.AR" data-name="Zaragoza" id="ES.AR"/>
utf-8</g>
</svg>
