<?xml version="1.0" encoding="UTF-8"?>
<svg xmlns="http://www.w3.org/2000/svg" viewBox="0 0 1920 1080">
  <defs>
    <style>
      .cls-1 {
        fill: none;
        stroke: #79b9fc;
        stroke-miterlimit: 10;
        stroke-width: 3px;
      }

      .cls-2 {
        fill: #79b9fc;
      }

      .cls-3 {
        isolation: isolate;
      }

      .cls-4 {
        fill: #1b2341;
        mix-blend-mode: color-dodge;
      }
    </style>
  </defs>
  <g class="cls-3">
    <g id="Capa_1" data-name="Capa 1">
      <g>
        <g>
          <polygon class="cls-4" points="933.77 456.99 991.66 425.36 1048.01 459.68 1046.46 525.63 988.56 557.27 932.22 522.95 933.77 456.99"/>
          <polygon class="cls-4" points="699.61 650.06 757.51 618.42 813.85 652.74 812.3 718.69 754.41 750.33 698.06 716.01 699.61 650.06"/>
          <polygon class="cls-4" points="650.57 350.31 708.47 318.67 764.81 352.99 763.26 418.95 705.37 450.58 649.02 416.26 650.57 350.31"/>
          <polygon class="cls-4" points="868.97 750.96 926.87 719.33 983.21 753.65 981.66 819.6 923.77 851.24 867.42 816.92 868.97 750.96"/>
          <polygon class="cls-4" points="479.68 247.57 537.57 215.93 593.92 250.25 592.37 316.21 534.47 347.84 478.13 313.52 479.68 247.57"/>
          <polygon class="cls-4" points="1155.7 725.56 1213.6 693.92 1269.94 728.24 1268.39 794.2 1210.5 825.83 1154.15 791.51 1155.7 725.56"/>
          <polygon class="cls-4" points="823.76 255.67 881.65 224.04 938 258.36 936.45 324.31 878.55 355.95 822.21 321.63 823.76 255.67"/>
          <polygon class="cls-4" points="588.35 514.52 646.25 482.89 702.59 517.21 701.04 583.16 643.15 614.8 586.8 580.48 588.35 514.52"/>
          <polygon class="cls-4" points="1275.38 529.95 1333.28 498.31 1389.62 532.63 1388.07 598.58 1330.18 630.22 1273.84 595.9 1275.38 529.95"/>
        </g>
        <g>
          <polygon class="cls-1" points="1219.52 496.34 1277.52 464.65 1333.97 499.03 1332.42 565.11 1274.42 596.8 1217.97 562.42 1219.52 496.34"/>
          <polygon class="cls-1" points="1271.31 728.95 1329.31 697.26 1385.76 731.64 1384.21 797.72 1326.21 829.41 1269.76 795.03 1271.31 728.95"/>
          <polygon class="cls-1" points="1216.41 628.5 1274.41 596.8 1330.86 631.18 1329.31 697.26 1271.31 728.95 1214.86 694.57 1216.41 628.5"/>
          <polygon class="cls-1" points="1327.76 763.33 1385.76 731.64 1442.21 766.02 1440.66 832.1 1382.66 863.79 1326.21 829.41 1327.76 763.33"/>
          <polygon class="cls-1" points="1330.87 631.18 1388.87 599.49 1445.31 633.87 1443.76 699.95 1385.76 731.64 1329.31 697.26 1330.87 631.18"/>
          <polygon class="cls-1" points="1158.42 660.19 1216.42 628.49 1272.87 662.88 1271.31 728.95 1213.31 760.65 1156.87 726.26 1158.42 660.19"/>
          <polygon class="cls-1" points="1272.87 662.88 1330.87 631.18 1387.31 665.57 1385.76 731.64 1327.76 763.33 1271.31 728.95 1272.87 662.88"/>
          <polygon class="cls-1" points="932.64 522.67 990.64 490.98 1047.08 525.36 1045.53 591.44 987.53 623.13 931.09 588.75 932.64 522.67"/>
          <polygon class="cls-1" points="984.43 755.28 1042.43 723.59 1098.87 757.97 1097.32 824.05 1039.32 855.74 982.87 821.36 984.43 755.28"/>
          <polygon class="cls-1" points="929.53 654.82 987.53 623.13 1043.98 657.51 1042.42 723.59 984.42 755.28 927.98 720.9 929.53 654.82"/>
          <polygon class="cls-1" points="1043.98 657.51 1101.98 625.82 1158.43 660.2 1156.87 726.28 1098.87 757.97 1042.43 723.59 1043.98 657.51"/>
          <polygon class="cls-1" points="871.53 686.52 929.53 654.82 985.98 689.2 984.43 755.28 926.43 786.97 869.98 752.59 871.53 686.52"/>
          <polygon class="cls-1" points="985.98 689.2 1043.98 657.51 1100.43 691.89 1098.87 757.97 1040.87 789.66 984.43 755.28 985.98 689.2"/>
          <polygon class="cls-1" points="1155.33 792.37 1097.33 824.06 1040.88 789.68 1042.43 723.6 1100.43 691.91 1156.88 726.29 1155.33 792.37"/>
          <polygon class="cls-1" points="1103.54 559.76 1045.54 591.45 989.09 557.07 990.65 490.99 1048.65 459.3 1105.09 493.68 1103.54 559.76"/>
          <polygon class="cls-1" points="1158.44 660.21 1100.44 691.91 1043.99 657.52 1045.54 591.45 1103.54 559.75 1159.99 594.14 1158.44 660.21"/>
          <polygon class="cls-1" points="1047.09 525.37 989.09 557.07 932.65 522.68 934.2 456.61 992.2 424.91 1048.65 459.3 1047.09 525.37"/>
          <polygon class="cls-1" points="1043.99 657.53 985.99 689.22 929.54 654.84 931.09 588.76 989.09 557.07 1045.54 591.45 1043.99 657.53"/>
          <polygon class="cls-1" points="1216.43 628.52 1158.43 660.21 1101.99 625.83 1103.54 559.76 1161.54 528.06 1217.99 562.44 1216.43 628.52"/>
          <polygon class="cls-1" points="1101.99 625.83 1043.99 657.53 987.54 623.14 989.09 557.07 1047.09 525.37 1103.54 559.76 1101.99 625.83"/>
          <polygon class="cls-1" points="1442.22 766.04 1384.22 797.73 1327.77 763.35 1329.32 697.27 1387.32 665.58 1443.77 699.96 1442.22 766.04"/>
          <polygon class="cls-1" points="1390.43 533.43 1332.43 565.12 1275.98 530.74 1277.53 464.66 1335.53 432.97 1391.98 467.35 1390.43 533.43"/>
          <polygon class="cls-1" points="1445.32 633.88 1387.32 665.58 1330.88 631.19 1332.43 565.12 1390.43 533.42 1446.88 567.81 1445.32 633.88"/>
          <polygon class="cls-1" points="1330.87 631.2 1272.87 662.89 1216.43 628.51 1217.98 562.43 1275.98 530.74 1332.43 565.12 1330.87 631.2"/>
          <polygon class="cls-1" points="1503.32 602.19 1445.32 633.89 1388.87 599.5 1390.43 533.43 1448.43 501.73 1504.87 536.12 1503.32 602.19"/>
          <polygon class="cls-1" points="1388.87 599.5 1330.87 631.2 1274.43 596.81 1275.98 530.74 1333.98 499.04 1390.43 533.43 1388.87 599.5"/>
          <polygon class="cls-1" points="765.98 287.63 823.98 255.94 880.43 290.32 878.88 356.4 820.88 388.09 764.43 353.71 765.98 287.63"/>
          <polygon class="cls-1" points="817.77 520.24 875.77 488.55 932.22 522.93 930.66 589.01 872.66 620.7 816.22 586.32 817.77 520.24"/>
          <polygon class="cls-1" points="762.87 419.79 820.87 388.09 877.32 422.48 875.77 488.55 817.77 520.25 761.32 485.86 762.87 419.79"/>
          <polygon class="cls-1" points="874.22 554.63 932.22 522.93 988.66 557.32 987.11 623.39 929.11 655.09 872.66 620.7 874.22 554.63"/>
          <polygon class="cls-1" points="877.32 422.47 935.32 390.78 991.77 425.16 990.22 491.24 932.22 522.93 875.77 488.55 877.32 422.47"/>
          <polygon class="cls-1" points="704.88 451.48 762.88 419.79 819.32 454.17 817.77 520.24 759.77 551.94 703.32 517.56 704.88 451.48"/>
          <polygon class="cls-1" points="819.32 454.17 877.32 422.48 933.77 456.86 932.22 522.93 874.22 554.63 817.77 520.24 819.32 454.17"/>
          <polygon class="cls-1" points="479.09 313.96 537.09 282.27 593.54 316.65 591.99 382.73 533.99 414.42 477.54 380.04 479.09 313.96"/>
          <polygon class="cls-1" points="530.88 546.57 588.88 514.88 645.33 549.26 643.78 615.34 585.78 647.03 529.33 612.65 530.88 546.57"/>
          <polygon class="cls-1" points="475.98 446.12 533.98 414.42 590.43 448.81 588.88 514.88 530.88 546.58 474.43 512.19 475.98 446.12"/>
          <polygon class="cls-1" points="590.44 448.8 648.44 417.11 704.88 451.49 703.33 517.57 645.33 549.26 588.88 514.88 590.44 448.8"/>
          <polygon class="cls-1" points="417.99 477.81 475.99 446.11 532.44 480.5 530.88 546.57 472.88 578.27 416.44 543.88 417.99 477.81"/>
          <polygon class="cls-1" points="532.44 480.5 590.44 448.8 646.88 483.19 645.33 549.26 587.33 580.96 530.88 546.57 532.44 480.5"/>
          <polygon class="cls-1" points="701.79 583.66 643.79 615.35 587.34 580.97 588.89 514.89 646.89 483.2 703.34 517.58 701.79 583.66"/>
          <polygon class="cls-1" points="650 351.05 592 382.74 535.55 348.36 537.1 282.28 595.1 250.59 651.55 284.97 650 351.05"/>
          <polygon class="cls-1" points="704.89 451.5 646.89 483.2 590.45 448.82 592 382.74 650 351.05 706.45 385.43 704.89 451.5"/>
          <polygon class="cls-1" points="593.55 316.66 535.55 348.36 479.1 313.98 480.65 247.9 538.65 216.21 595.1 250.59 593.55 316.66"/>
          <polygon class="cls-1" points="590.44 448.82 532.44 480.51 476 446.13 477.55 380.05 535.55 348.36 592 382.74 590.44 448.82"/>
          <polygon class="cls-1" points="762.89 419.81 704.89 451.51 648.44 417.12 650 351.05 708 319.35 764.44 353.74 762.89 419.81"/>
          <polygon class="cls-1" points="648.44 417.12 590.44 448.82 534 414.43 535.55 348.36 593.55 316.67 650 351.05 648.44 417.12"/>
          <polygon class="cls-1" points="988.67 557.33 930.67 589.02 874.22 554.64 875.78 488.57 933.78 456.87 990.22 491.25 988.67 557.33"/>
          <polygon class="cls-1" points="936.88 324.72 878.88 356.41 822.44 322.03 823.99 255.95 881.99 224.26 938.44 258.64 936.88 324.72"/>
          <polygon class="cls-1" points="991.78 425.18 933.78 456.87 877.33 422.49 878.89 356.41 936.89 324.72 993.33 359.1 991.78 425.18"/>
          <polygon class="cls-1" points="877.33 422.49 819.33 454.18 762.88 419.8 764.44 353.72 822.44 322.03 878.88 356.41 877.33 422.49"/>
          <polygon class="cls-1" points="1049.78 393.48 991.78 425.18 935.33 390.8 936.88 324.72 994.88 293.03 1051.33 327.41 1049.78 393.48"/>
          <polygon class="cls-1" points="935.33 390.8 877.33 422.49 820.88 388.11 822.44 322.03 880.44 290.34 936.88 324.72 935.33 390.8"/>
        </g>
        <g>
          <polyline class="cls-1" points="1333.97 499.03 1275.97 530.72 1219.52 496.34"/>
          <line class="cls-1" x1="1442.21" y1="766.02" x2="1498.66" y2="800.41"/>
          <line class="cls-1" x1="1446.87" y1="567.8" x2="1503.31" y2="602.18"/>
          <line class="cls-1" x1="1101.98" y1="625.82" x2="1158.43" y2="660.2"/>
          <line class="cls-1" x1="1161.52" y1="528.03" x2="1219.52" y2="496.34"/>
          <line class="cls-1" x1="1211.76" y1="826.72" x2="1269.76" y2="795.03"/>
          <line class="cls-1" x1="1424.08" y1="319.35" x2="1482.08" y2="287.66"/>
          <line class="cls-1" x1="1163.08" y1="461.97" x2="1164.64" y2="395.9"/>
          <line class="cls-1" x1="1274.43" y1="596.81" x2="1275.98" y2="530.74"/>
          <line class="cls-1" x1="1324.65" y1="895.49" x2="1326.2" y2="829.41"/>
          <line class="cls-1" x1="1451.54" y1="369.6" x2="1453.09" y2="303.52"/>
          <line class="cls-1" x1="1445.31" y1="633.87" x2="1446.87" y2="567.8"/>
          <polyline class="cls-1" points="1332.42 565.11 1275.97 530.72 1277.52 464.65"/>
          <polyline class="cls-1" points="1506.42 470.03 1449.97 435.64 1451.52 369.57"/>
          <polyline class="cls-1" points="1047.08 525.36 989.08 557.05 932.64 522.67"/>
          <line class="cls-1" x1="1098.87" y1="757.97" x2="1155.32" y2="792.35"/>
          <line class="cls-1" x1="815.09" y1="652.15" x2="871.54" y2="686.53"/>
          <line class="cls-1" x1="874.64" y1="554.36" x2="932.64" y2="522.67"/>
          <line class="cls-1" x1="963.19" y1="440.75" x2="1021.19" y2="409.05"/>
          <line class="cls-1" x1="1008.77" y1="937.66" x2="1066.77" y2="905.97"/>
          <line class="cls-1" x1="924.87" y1="853.05" x2="982.87" y2="821.36"/>
          <line class="cls-1" x1="1506.42" y1="470.03" x2="1564.42" y2="438.33"/>
          <line class="cls-1" x1="990.64" y1="490.98" x2="992.19" y2="424.9"/>
          <line class="cls-1" x1="987.54" y1="623.14" x2="989.09" y2="557.07"/>
          <line class="cls-1" x1="1037.76" y1="921.82" x2="1039.32" y2="855.74"/>
          <line class="cls-1" x1="1158.43" y1="660.2" x2="1159.98" y2="594.12"/>
          <polyline class="cls-1" points="1045.53 591.43 989.08 557.05 990.64 490.98"/>
          <polyline class="cls-1" points="1040.88 789.68 1098.88 757.98 1155.33 792.37"/>
          <line class="cls-1" x1="932.65" y1="522.68" x2="876.2" y2="488.3"/>
          <line class="cls-1" x1="927.99" y1="720.91" x2="871.54" y2="686.53"/>
          <line class="cls-1" x1="1272.87" y1="662.89" x2="1216.43" y2="628.51"/>
          <line class="cls-1" x1="1213.33" y1="760.67" x2="1155.33" y2="792.37"/>
          <line class="cls-1" x1="1163.09" y1="461.99" x2="1105.09" y2="493.68"/>
          <line class="cls-1" x1="950.77" y1="969.36" x2="892.77" y2="1001.05"/>
          <line class="cls-1" x1="694.68" y1="914.21" x2="636.68" y2="945.9"/>
          <line class="cls-1" x1="1736.87" y1="409.33" x2="1678.87" y2="441.02"/>
          <line class="cls-1" x1="1211.77" y1="826.74" x2="1210.22" y2="892.81"/>
          <line class="cls-1" x1="1100.43" y1="691.89" x2="1098.87" y2="757.97"/>
          <line class="cls-1" x1="1050.2" y1="393.22" x2="1048.65" y2="459.29"/>
          <line class="cls-1" x1="923.31" y1="919.11" x2="921.76" y2="985.19"/>
          <line class="cls-1" x1="929.54" y1="654.84" x2="927.99" y2="720.91"/>
          <polyline class="cls-1" points="1042.43 723.6 1098.88 757.98 1097.33 824.06"/>
          <polyline class="cls-1" points="868.43 818.68 924.88 853.06 923.33 919.14"/>
          <polyline class="cls-1" points="1327.77 763.35 1385.77 731.66 1442.22 766.04"/>
          <line class="cls-1" x1="1275.98" y1="530.74" x2="1219.53" y2="496.35"/>
          <line class="cls-1" x1="1559.76" y1="636.56" x2="1503.31" y2="602.18"/>
          <line class="cls-1" x1="1500.22" y1="734.34" x2="1442.22" y2="766.04"/>
          <line class="cls-1" x1="1411.66" y1="847.96" x2="1353.66" y2="879.65"/>
          <line class="cls-1" x1="1366.08" y1="351.05" x2="1308.08" y2="382.74"/>
          <line class="cls-1" x1="1449.98" y1="435.66" x2="1391.98" y2="467.35"/>
          <line class="cls-1" x1="868.43" y1="818.68" x2="810.43" y2="850.37"/>
          <line class="cls-1" x1="1562.88" y1="504.44" x2="1504.88" y2="536.13"/>
          <line class="cls-1" x1="1384.22" y1="797.73" x2="1382.66" y2="863.81"/>
          <line class="cls-1" x1="1387.31" y1="665.57" x2="1385.76" y2="731.64"/>
          <line class="cls-1" x1="1337.09" y1="366.89" x2="1335.54" y2="432.97"/>
          <line class="cls-1" x1="1216.43" y1="628.51" x2="1214.87" y2="694.58"/>
          <polyline class="cls-1" points="1329.32 697.27 1385.77 731.66 1384.22 797.73"/>
          <polyline class="cls-1" points="880.43 290.32 822.43 322.02 765.98 287.63"/>
          <line class="cls-1" x1="988.66" y1="557.32" x2="1045.11" y2="591.7"/>
          <line class="cls-1" x1="993.32" y1="359.09" x2="1049.77" y2="393.47"/>
          <line class="cls-1" x1="648.44" y1="417.11" x2="704.88" y2="451.49"/>
          <line class="cls-1" x1="707.98" y1="319.33" x2="765.98" y2="287.63"/>
          <line class="cls-1" x1="758.22" y1="618.01" x2="816.22" y2="586.32"/>
          <line class="cls-1" x1="970.54" y1="110.64" x2="1028.54" y2="78.95"/>
          <line class="cls-1" x1="709.54" y1="253.26" x2="711.09" y2="187.19"/>
          <line class="cls-1" x1="820.88" y1="388.11" x2="822.44" y2="322.03"/>
          <line class="cls-1" x1="871.11" y1="686.78" x2="872.66" y2="620.71"/>
          <line class="cls-1" x1="998" y1="160.89" x2="999.55" y2="94.81"/>
          <line class="cls-1" x1="991.77" y1="425.16" x2="993.32" y2="359.09"/>
          <polyline class="cls-1" points="878.88 356.4 822.43 322.02 823.98 255.94"/>
          <polyline class="cls-1" points="1052.88 261.32 996.43 226.94 997.98 160.86"/>
          <polyline class="cls-1" points="593.54 316.65 535.54 348.34 479.09 313.96"/>
          <line class="cls-1" x1="645.33" y1="549.26" x2="701.78" y2="583.65"/>
          <line class="cls-1" x1="361.55" y1="443.44" x2="418" y2="477.82"/>
          <line class="cls-1" x1="421.09" y1="345.66" x2="479.09" y2="313.96"/>
          <line class="cls-1" x1="509.65" y1="232.04" x2="567.65" y2="200.35"/>
          <line class="cls-1" x1="555.23" y1="728.95" x2="613.23" y2="697.26"/>
          <line class="cls-1" x1="471.33" y1="644.34" x2="529.33" y2="612.65"/>
          <line class="cls-1" x1="1052.88" y1="261.32" x2="1110.88" y2="229.63"/>
          <line class="cls-1" x1="537.09" y1="282.27" x2="538.65" y2="216.19"/>
          <line class="cls-1" x1="534" y1="414.43" x2="535.55" y2="348.36"/>
          <line class="cls-1" x1="584.22" y1="713.11" x2="585.77" y2="647.03"/>
          <line class="cls-1" x1="704.88" y1="451.49" x2="706.44" y2="385.42"/>
          <polyline class="cls-1" points="591.99 382.73 535.54 348.34 537.09 282.27"/>
          <polyline class="cls-1" points="587.34 580.97 645.34 549.28 701.79 583.66"/>
          <line class="cls-1" x1="479.1" y1="313.98" x2="422.65" y2="279.59"/>
          <line class="cls-1" x1="474.44" y1="512.2" x2="418" y2="477.82"/>
          <line class="cls-1" x1="819.33" y1="454.18" x2="762.88" y2="419.8"/>
          <line class="cls-1" x1="759.79" y1="551.97" x2="701.79" y2="583.66"/>
          <line class="cls-1" x1="709.55" y1="253.28" x2="651.55" y2="284.97"/>
          <line class="cls-1" x1="497.23" y1="760.65" x2="439.23" y2="792.34"/>
          <line class="cls-1" x1="241.13" y1="705.5" x2="183.13" y2="737.19"/>
          <line class="cls-1" x1="1283.32" y1="200.62" x2="1225.32" y2="232.31"/>
          <line class="cls-1" x1="758.22" y1="618.03" x2="756.67" y2="684.1"/>
          <line class="cls-1" x1="646.88" y1="483.19" x2="645.33" y2="549.26"/>
          <line class="cls-1" x1="596.66" y1="184.51" x2="595.11" y2="250.59"/>
          <line class="cls-1" x1="469.77" y1="710.4" x2="468.22" y2="776.48"/>
          <polyline class="cls-1" points="588.89 514.89 645.34 549.28 643.79 615.35"/>
          <polyline class="cls-1" points="414.89 609.97 471.34 644.36 469.79 710.43"/>
          <polyline class="cls-1" points="874.22 554.64 932.22 522.95 988.67 557.33"/>
          <line class="cls-1" x1="822.44" y1="322.03" x2="765.99" y2="287.65"/>
          <line class="cls-1" x1="1106.22" y1="427.85" x2="1049.77" y2="393.47"/>
          <line class="cls-1" x1="1046.67" y1="525.64" x2="988.67" y2="557.33"/>
          <line class="cls-1" x1="912.54" y1="142.34" x2="854.54" y2="174.03"/>
          <line class="cls-1" x1="996.44" y1="226.95" x2="938.44" y2="258.64"/>
          <line class="cls-1" x1="414.89" y1="609.97" x2="356.89" y2="641.67"/>
          <line class="cls-1" x1="1109.34" y1="295.73" x2="1051.34" y2="327.42"/>
          <line class="cls-1" x1="930.67" y1="589.02" x2="929.12" y2="655.1"/>
          <line class="cls-1" x1="933.77" y1="456.86" x2="932.22" y2="522.93"/>
          <line class="cls-1" x1="883.54" y1="158.18" x2="881.99" y2="224.26"/>
          <line class="cls-1" x1="762.88" y1="419.8" x2="761.33" y2="485.88"/>
          <polyline class="cls-1" points="875.78 488.56 932.22 522.95 930.67 589.02"/>
        </g>
        <g>
          <polyline class="cls-1" points="1448.43 501.73 1446.87 567.81 1388.87 599.5 1332.43 565.12 1333.98 499.04 1391.98 467.35 1448.43 501.73"/>
          <polyline class="cls-1" points="1506.42 470.03 1504.87 536.1 1446.87 567.8 1390.42 533.41 1391.97 467.34 1449.97 435.64 1506.42 470.03"/>
          <polyline class="cls-1" points="1332.42 565.11 1330.87 631.18 1272.87 662.88 1216.42 628.49 1217.97 562.42 1275.97 530.72 1332.42 565.11"/>
          <polyline class="cls-1" points="1507.99 403.98 1506.43 470.05 1448.43 501.75 1391.99 467.36 1393.54 401.29 1451.54 369.6 1507.99 403.98"/>
          <polyline class="cls-1" points="1161.54 528.06 1159.99 594.14 1101.99 625.83 1045.54 591.45 1047.09 525.37 1105.09 493.68 1161.54 528.06"/>
          <polyline class="cls-1" points="1219.53 496.35 1217.98 562.43 1159.98 594.12 1103.53 559.74 1105.08 493.67 1163.08 461.97 1219.53 496.35"/>
          <polyline class="cls-1" points="1045.53 591.44 1043.98 657.51 985.98 689.2 929.53 654.82 931.09 588.75 989.08 557.05 1045.53 591.44"/>
          <polyline class="cls-1" points="926.43 786.97 927.98 720.9 985.98 689.2 1042.43 723.59 1040.87 789.66 982.87 821.36 926.43 786.97"/>
          <polyline class="cls-1" points="868.43 818.68 869.99 752.61 927.99 720.91 984.43 755.29 982.88 821.37 924.88 853.06 868.43 818.68"/>
          <polyline class="cls-1" points="1042.43 723.6 1043.99 657.53 1101.99 625.83 1158.43 660.21 1156.88 726.29 1098.88 757.98 1042.43 723.6"/>
          <polyline class="cls-1" points="866.87 884.73 868.42 818.65 926.42 786.96 982.87 821.34 981.31 887.42 923.31 919.11 866.87 884.73"/>
          <polyline class="cls-1" points="694.68 914.21 696.23 848.13 754.23 816.44 810.68 850.82 809.12 916.9 751.12 948.59 694.68 914.21"/>
          <polyline class="cls-1" points="727.42 896.31 728.1 867.54 753.35 853.74 777.93 868.71 777.26 897.48 752 911.28 727.42 896.31"/>
          <polyline class="cls-1" points="1595.61 486.52 1596.29 457.75 1621.54 443.95 1646.12 458.92 1645.44 487.69 1620.19 501.49 1595.61 486.52"/>
          <polyline class="cls-1" points="1563.12 504.88 1564.68 438.81 1622.68 407.11 1679.12 441.5 1677.57 507.57 1619.57 539.27 1563.12 504.88"/>
          <polyline class="cls-1" points="1213.31 760.65 1214.87 694.57 1272.87 662.88 1329.31 697.26 1327.76 763.33 1269.76 795.03 1213.31 760.65"/>
          <polyline class="cls-1" points="1155.32 792.35 1156.87 726.28 1214.87 694.58 1271.32 728.97 1269.77 795.04 1211.77 826.74 1155.32 792.35"/>
          <polyline class="cls-1" points="1329.32 697.27 1330.87 631.2 1388.87 599.5 1445.32 633.89 1443.77 699.96 1385.77 731.66 1329.32 697.27"/>
          <polyline class="cls-1" points="994.88 293.03 993.33 359.1 935.33 390.8 878.88 356.41 880.44 290.34 938.44 258.64 994.88 293.03"/>
          <polyline class="cls-1" points="1052.88 261.32 1051.32 327.39 993.32 359.09 936.88 324.71 938.43 258.63 996.43 226.94 1052.88 261.32"/>
          <polyline class="cls-1" points="878.88 356.4 877.32 422.47 819.32 454.17 762.88 419.79 764.43 353.71 822.43 322.02 878.88 356.4"/>
          <polyline class="cls-1" points="1054.44 195.27 1052.89 261.35 994.89 293.04 938.44 258.66 940 192.58 998 160.89 1054.44 195.27"/>
          <polyline class="cls-1" points="708 319.35 706.44 385.43 648.44 417.12 592 382.74 593.55 316.67 651.55 284.97 708 319.35"/>
          <polyline class="cls-1" points="765.99 287.65 764.44 353.72 706.44 385.42 649.99 351.03 651.54 284.96 709.54 253.26 765.99 287.65"/>
          <polyline class="cls-1" points="591.99 382.73 590.44 448.8 532.44 480.5 475.99 446.11 477.54 380.04 535.54 348.34 591.99 382.73"/>
          <polyline class="cls-1" points="472.88 578.27 474.44 512.19 532.44 480.5 588.88 514.88 587.33 580.96 529.33 612.65 472.88 578.27"/>
          <polyline class="cls-1" points="414.89 609.97 416.44 543.9 474.44 512.2 530.89 546.59 529.34 612.66 471.34 644.36 414.89 609.97"/>
          <polyline class="cls-1" points="588.89 514.89 590.44 448.82 648.44 417.12 704.89 451.51 703.34 517.58 645.34 549.28 588.89 514.89"/>
          <polyline class="cls-1" points="413.32 676.02 414.88 609.95 472.88 578.25 529.32 612.64 527.77 678.71 469.77 710.4 413.32 676.02"/>
          <polyline class="cls-1" points="241.13 705.5 242.69 639.42 300.69 607.73 357.13 642.11 355.58 708.19 297.58 739.88 241.13 705.5"/>
          <polyline class="cls-1" points="273.88 687.61 274.56 658.83 299.81 645.03 324.39 660.01 323.71 688.78 298.46 702.58 273.88 687.61"/>
          <polyline class="cls-1" points="1142.07 277.81 1142.74 249.04 1168 235.24 1192.58 250.21 1191.9 278.98 1166.65 292.78 1142.07 277.81"/>
          <polyline class="cls-1" points="1109.58 296.17 1111.13 230.1 1169.13 198.41 1225.58 232.79 1224.03 298.86 1166.03 330.56 1109.58 296.17"/>
          <polyline class="cls-1" points="759.77 551.94 761.32 485.86 819.32 454.17 875.77 488.55 874.22 554.63 816.22 586.32 759.77 551.94"/>
          <polyline class="cls-1" points="698.67 715.8 700.23 649.72 758.22 618.03 814.67 652.41 813.12 718.49 755.12 750.18 698.67 715.8"/>
          <polyline class="cls-1" points="697.12 781.87 698.67 715.8 756.67 684.1 813.12 718.49 811.57 784.56 753.57 816.26 697.12 781.87"/>
          <polyline class="cls-1" points="753.57 816.26 755.12 750.18 813.12 718.49 869.57 752.87 868.01 818.95 810.01 850.64 753.57 816.26"/>
          <polyline class="cls-1" points="701.78 583.65 703.33 517.57 761.33 485.88 817.78 520.26 816.22 586.33 758.22 618.03 701.78 583.65"/>
          <polyline class="cls-1" points="875.78 488.57 877.33 422.49 935.33 390.8 991.78 425.18 990.22 491.25 932.22 522.95 875.78 488.57"/>
        </g>
        <g>
          <circle class="cls-1" cx="1449.99" cy="435.67" r="33.55" transform="translate(37.93 981.89) rotate(-37.87)"/>
          <circle class="cls-1" cx="1042.27" cy="723.67" r="33.55" transform="translate(-219.37 588.41) rotate(-28.65)"/>
          <circle class="cls-1" cx="1329.33" cy="697.05" r="33.55"/>
          <circle class="cls-1" cx="996.44" cy="226.96" r="33.55" transform="translate(131.36 771.07) rotate(-45)"/>
          <circle class="cls-1" cx="588.73" cy="514.96" r="33.55"/>
          <circle class="cls-1" cx="875.79" cy="488.35" r="33.55" transform="translate(-54.04 112.98) rotate(-7.16)"/>
          <circle class="cls-1" cx="535.87" cy="348.45" r="33.55"/>
        </g>
        <g>
          <circle class="cls-2" cx="810.42" cy="850.35" r="4.4"/>
          <circle class="cls-2" cx="1562.88" cy="504.44" r="4.4" transform="translate(-50.48 811.21) rotate(-28.65)"/>
          <circle class="cls-2" cx="963.19" cy="440.75" r="4.4"/>
          <circle class="cls-2" cx="1021.19" cy="409.05" r="4.4" transform="translate(-52.93 646.6) rotate(-34.3)"/>
          <circle class="cls-2" cx="1164.64" cy="395.9" r="4.4"/>
          <circle class="cls-2" cx="1211.77" cy="826.74" r="4.4"/>
          <circle class="cls-2" cx="1040.87" cy="789.67" r="4.4" transform="translate(-251.19 595.82) rotate(-28.65)"/>
          <circle class="cls-2" cx="1155.31" cy="792.34" r="4.4"/>
          <circle class="cls-2" cx="931.09" cy="588.75" r="4.4" transform="translate(-165.38 695.06) rotate(-37.84)"/>
          <circle class="cls-2" cx="984.43" cy="755.28" r="4.4" transform="translate(-249.7 626.97) rotate(-31.56)"/>
          <circle class="cls-2" cx="924.87" cy="853.04" r="4.4"/>
          <circle class="cls-2" cx="878.5" cy="552.25" r="4.4"/>
          <circle class="cls-2" cx="1037.76" cy="921.82" r="4.4"/>
          <circle class="cls-2" cx="815.09" cy="652.15" r="4.4"/>
          <circle class="cls-2" cx="1043.97" cy="657.5" r="4.4"/>
          <circle class="cls-2" cx="1161.52" cy="528.04" r="4.4" transform="translate(-110.95 621.64) rotate(-28.65)"/>
          <circle class="cls-2" cx="1216.42" cy="628.49" r="4.4"/>
          <circle class="cls-2" cx="1100.43" cy="691.91" r="4.4" transform="translate(-196.09 785.3) rotate(-36.28)"/>
          <circle class="cls-2" cx="1385.76" cy="731.64" r="4.4"/>
          <circle class="cls-2" cx="1045.54" cy="591.45" r="4.4"/>
          <circle class="cls-2" cx="1445.32" cy="633.89" r="4.4"/>
          <circle class="cls-2" cx="1391.99" cy="467.36" r="4.4"/>
          <circle class="cls-2" cx="1332.42" cy="565.11" r="4.4" transform="translate(-107.8 708.12) rotate(-28.65)"/>
          <circle class="cls-2" cx="1324.66" cy="895.49" r="4.4"/>
          <circle class="cls-2" cx="1388.87" cy="599.5" r="4.4" transform="translate(-117.38 739.41) rotate(-28.65)"/>
          <circle class="cls-2" cx="1498.66" cy="800.41" r="4.4"/>
          <circle class="cls-2" cx="1453.09" cy="303.52" r="4.4"/>
          <circle class="cls-2" cx="1503.31" cy="602.18" r="4.4"/>
          <circle class="cls-2" cx="1271.32" cy="728.97" r="4.4"/>
          <circle class="cls-2" cx="1277.52" cy="464.65" r="4.4" transform="translate(-42.45 139.63) rotate(-6.15)"/>
          <circle class="cls-2" cx="1411.66" cy="847.96" r="4.4"/>
          <circle class="cls-2" cx="1353.66" cy="879.65" r="4.4" transform="translate(-254.92 1016.26) rotate(-37.87)"/>
          <circle class="cls-2" cx="1210.22" cy="892.81" r="4.4"/>
          <circle class="cls-2" cx="1163.08" cy="461.97" r="4.4" transform="translate(-79.08 614.3) rotate(-28.65)"/>
          <circle class="cls-2" cx="1333.98" cy="499.04" r="4.4"/>
          <circle class="cls-2" cx="1219.54" cy="496.37" r="4.4" transform="translate(-88.66 645.58) rotate(-28.65)"/>
          <circle class="cls-2" cx="1443.77" cy="699.96" r="4.4" transform="translate(365.77 1888.37) rotate(-73.65)"/>
          <circle class="cls-2" cx="1390.42" cy="533.43" r="4.4"/>
          <circle class="cls-2" cx="1449.99" cy="435.67" r="4.4" transform="translate(-31.34 748.65) rotate(-28.65)"/>
          <circle class="cls-2" cx="1496.35" cy="736.46" r="4.4"/>
          <circle class="cls-2" cx="1337.09" cy="366.89" r="4.4"/>
          <circle class="cls-2" cx="1559.76" cy="636.56" r="4.4"/>
          <circle class="cls-2" cx="1330.88" cy="631.21" r="4.4"/>
          <circle class="cls-2" cx="1213.33" cy="760.67" r="4.4"/>
          <circle class="cls-2" cx="1158.43" cy="660.21" r="4.4"/>
          <circle class="cls-2" cx="1274.42" cy="596.8" r="4.4"/>
          <circle class="cls-2" cx="989.1" cy="557.06" r="4.4"/>
          <circle class="cls-2" cx="1329.31" cy="697.26" r="4.4"/>
          <circle class="cls-2" cx="929.53" cy="654.82" r="4.4"/>
          <circle class="cls-2" cx="982.87" cy="821.34" r="4.4"/>
          <circle class="cls-2" cx="1042.43" cy="723.6" r="4.4"/>
          <circle class="cls-2" cx="1050.2" cy="393.22" r="4.4"/>
          <circle class="cls-2" cx="985.98" cy="689.2" r="4.4"/>
          <circle class="cls-2" cx="876.2" cy="488.3" r="4.4"/>
          <circle class="cls-2" cx="921.76" cy="985.19" r="4.4" transform="translate(-412.86 787.61) rotate(-38.48)"/>
          <circle class="cls-2" cx="871.54" cy="686.53" r="4.4" transform="translate(-222.47 502) rotate(-28.65)"/>
          <circle class="cls-2" cx="694.68" cy="914.21" r="4.4"/>
          <circle class="cls-2" cx="636.68" cy="945.9" r="4.4"/>
          <circle class="cls-2" cx="1679.12" cy="441.5" r="4.4"/>
          <circle class="cls-2" cx="1736.87" cy="409.33" r="4.4"/>
          <circle class="cls-2" cx="1103.54" cy="559.74" r="4.4"/>
          <circle class="cls-2" cx="1097.33" cy="824.06" r="4.4" transform="translate(-83.68 125.19) rotate(-6.29)"/>
          <circle class="cls-2" cx="356.88" cy="641.64" r="4.4"/>
          <circle class="cls-2" cx="1109.34" cy="295.73" r="4.4" transform="translate(-5.95 568.16) rotate(-28.65)"/>
          <circle class="cls-2" cx="509.65" cy="232.04" r="4.4" transform="translate(-21.94 55.97) rotate(-6.15)"/>
          <circle class="cls-2" cx="567.65" cy="200.35" r="4.4"/>
          <circle class="cls-2" cx="711.09" cy="187.19" r="4.4" transform="translate(-2.67 363.91) rotate(-28.65)"/>
          <circle class="cls-2" cx="758.22" cy="618.03" r="4.4"/>
          <circle class="cls-2" cx="587.33" cy="580.96" r="4.4"/>
          <circle class="cls-2" cx="701.77" cy="583.63" r="4.4"/>
          <circle class="cls-2" cx="477.54" cy="380.04" r="4.4"/>
          <circle class="cls-2" cx="530.89" cy="546.57" r="4.4" transform="translate(-197.07 321.51) rotate(-28.65)"/>
          <circle class="cls-2" cx="471.32" cy="644.33" r="4.4"/>
          <circle class="cls-2" cx="424.96" cy="343.54" r="4.4"/>
          <circle class="cls-2" cx="584.22" cy="713.11" r="4.4"/>
          <circle class="cls-2" cx="361.55" cy="443.44" r="4.4"/>
          <circle class="cls-2" cx="590.43" cy="448.79" r="4.4"/>
          <circle class="cls-2" cx="707.98" cy="319.33" r="4.4"/>
          <circle class="cls-2" cx="762.88" cy="419.79" r="4.4"/>
          <circle class="cls-2" cx="646.89" cy="483.2" r="4.4" transform="translate(-150.26 354.77) rotate(-27.61)"/>
          <circle class="cls-2" cx="932.21" cy="522.94" r="4.4"/>
          <circle class="cls-2" cx="592" cy="382.74" r="4.4"/>
          <circle class="cls-2" cx="991.78" cy="425.18" r="4.4"/>
          <circle class="cls-2" cx="938.44" cy="258.66" r="4.4"/>
          <circle class="cls-2" cx="878.88" cy="356.4" r="4.4" transform="translate(-17.78 665.36) rotate(-41.09)"/>
          <circle class="cls-2" cx="871.11" cy="686.78" r="4.4"/>
          <circle class="cls-2" cx="935.33" cy="390.8" r="4.4"/>
          <circle class="cls-2" cx="1045.11" cy="591.7" r="4.4"/>
          <circle class="cls-2" cx="999.55" cy="94.81" r="4.4"/>
          <circle class="cls-2" cx="1049.77" cy="393.47" r="4.4"/>
          <circle class="cls-2" cx="817.77" cy="520.26" r="4.4"/>
          <circle class="cls-2" cx="823.98" cy="255.94" r="4.4"/>
          <circle class="cls-2" cx="756.67" cy="684.1" r="4.4"/>
          <circle class="cls-2" cx="709.54" cy="253.26" r="4.4"/>
          <circle class="cls-2" cx="880.44" cy="290.33" r="4.4"/>
          <circle class="cls-2" cx="766" cy="287.66" r="4.4" transform="translate(-44.13 402.54) rotate(-28.65)"/>
          <circle class="cls-2" cx="990.22" cy="491.25" r="4.4" transform="translate(-114.29 534.99) rotate(-28.65)"/>
          <circle class="cls-2" cx="936.88" cy="324.72" r="4.4" transform="translate(-29.94 104.6) rotate(-6.29)"/>
          <circle class="cls-2" cx="996.44" cy="226.96" r="4.4" transform="translate(-18.59 108.13) rotate(-6.15)"/>
          <circle class="cls-2" cx="883.54" cy="158.18" r="4.4"/>
          <circle class="cls-2" cx="1106.22" cy="427.85" r="4.4" transform="translate(-39.49 121.05) rotate(-6.15)"/>
          <circle class="cls-2" cx="877.34" cy="422.5" r="4.4"/>
          <circle class="cls-2" cx="759.79" cy="551.96" r="4.4"/>
          <circle class="cls-2" cx="704.89" cy="451.51" r="4.4"/>
          <circle class="cls-2" cx="820.88" cy="388.09" r="4.4"/>
          <circle class="cls-2" cx="535.55" cy="348.36" r="4.4"/>
          <circle class="cls-2" cx="875.77" cy="488.55" r="4.4"/>
          <circle class="cls-2" cx="475.99" cy="446.11" r="4.4"/>
          <circle class="cls-2" cx="529.32" cy="612.64" r="4.4" transform="translate(-228.94 328.85) rotate(-28.65)"/>
          <circle class="cls-2" cx="588.89" cy="514.89" r="4.4"/>
          <circle class="cls-2" cx="596.65" cy="184.51" r="4.4"/>
          <circle class="cls-2" cx="532.44" cy="480.5" r="4.4" transform="translate(-182.84 428.05) rotate(-37.87)"/>
          <circle class="cls-2" cx="422.65" cy="279.59" r="4.4" transform="translate(-82.69 317.55) rotate(-37.78)"/>
          <circle class="cls-2" cx="468.22" cy="776.48" r="4.4"/>
          <circle class="cls-2" cx="418" cy="477.82" r="4.4" transform="translate(-177.93 258.95) rotate(-28.65)"/>
          <circle class="cls-2" cx="241.13" cy="705.5" r="4.4"/>
          <circle class="cls-2" cx="183.13" cy="737.19" r="4.4"/>
          <circle class="cls-2" cx="1225.58" cy="232.79" r="4.4"/>
          <circle class="cls-2" cx="1283.32" cy="200.62" r="4.4" transform="translate(60.96 639.94) rotate(-28.65)"/>
          <circle class="cls-2" cx="649.99" cy="351.03" r="4.4"/>
          <circle class="cls-2" cx="643.79" cy="615.35" r="4.4"/>
        </g>
      </g>
    </g>
  </g>
</svg>